<svg width="1511" height="2402" xmlns="http://www.w3.org/2000/svg" xmlns:xlink="http://www.w3.org/1999/xlink" xml:space="preserve" overflow="hidden"><defs><clipPath id="clip0"><path d="M813.223 1469.12 1320.31 548.91 1686.01 750.432 1178.93 1670.65Z" fill-rule="evenodd" clip-rule="evenodd"/></clipPath><clipPath id="clip1"><path d="M813.223 1469.12 1320.31 548.91 1686.01 750.432 1178.93 1670.65Z" fill-rule="evenodd" clip-rule="evenodd"/></clipPath><clipPath id="clip2"><path d="M813.223 1469.12 1320.31 548.91 1686.01 750.432 1178.93 1670.65Z" fill-rule="evenodd" clip-rule="evenodd"/></clipPath></defs><g transform="translate(-505 119)"><path d="M94.4375 56.6625 1416.56 56.6625C1435.45 56.6625 1454.34 72.8518 1454.34 91.7393L1454.34 2304.28C1454.34 2325.86 1438.15 2339.35 1416.56 2339.35L94.4375 2339.35C75.55 2339.35 56.6625 2323.16 56.6625 2304.28L56.6625 91.7393C56.6625 72.8518 75.55 56.6625 94.4375 56.6625Z" fill="#007BFF" transform="matrix(1 0 0 1.00025 505 -117.65)"/><path d="M1419.26 113.325C1419.26 125.246 1409.6 134.911 1397.68 134.911 1385.75 134.911 1376.09 125.246 1376.09 113.325 1376.09 101.404 1385.75 91.7393 1397.68 91.7393 1409.6 91.7393 1419.26 101.404 1419.26 113.325Z" fill="#FFFFFF" transform="matrix(1 0 0 1.00025 505 -117.65)"/><path d="M134.911 113.325C134.911 125.246 125.246 134.911 113.325 134.911 101.404 134.911 91.7393 125.246 91.7393 113.325 91.7393 101.404 101.404 91.7393 113.325 91.7393 125.246 91.7393 134.911 101.404 134.911 113.325Z" fill="#FFFFFF" transform="matrix(1 0 0 1.00025 505 -117.65)"/><path d="M1419.26 2285.39C1419.26 2297.31 1409.6 2306.97 1397.68 2306.97 1385.75 2306.97 1376.09 2297.31 1376.09 2285.39 1376.09 2273.47 1385.75 2263.8 1397.68 2263.8 1409.6 2263.8 1419.26 2273.47 1419.26 2285.39Z" fill="#FFFFFF" transform="matrix(1 0 0 1.00025 505 -117.65)"/><path d="M134.911 2285.39C134.911 2297.31 125.246 2306.97 113.325 2306.97 101.404 2306.97 91.7393 2297.31 91.7393 2285.39 91.7393 2273.47 101.404 2263.8 113.325 2263.8 125.246 2263.8 134.911 2273.47 134.911 2285.39Z" fill="#FFFFFF" transform="matrix(1 0 0 1.00025 505 -117.65)"/><path d="M480.282 1519.09C426.318 1489.41 412.827 1440.85 445.205 1376.09 469.489 1330.22 504.566 1338.31 515.359 1343.71 536.945 1354.5 542.341 1394.98 542.341 1394.98 542.341 1394.98 555.832 1400.37 569.323 1373.39 582.814 1346.41 577.418 1314.03 536.945 1292.44 488.377 1268.16 439.809 1305.94 412.827 1357.2 391.241 1400.37 339.975 1513.7 450.602 1573.06 550.436 1624.33 655.666 1440.85 717.725 1475.92 787.879 1511 766.293 1597.34 752.802 1624.33 739.311 1651.31 715.027 1651.31 704.234 1645.91 647.571 1616.23 661.063 1554.17 661.063 1554.17 655.666 1551.47 636.779 1546.08 625.986 1567.66 596.305 1624.33 634.08 1670.19 679.95 1694.48 720.423 1716.06 758.198 1699.88 779.784 1656.7 820.257 1575.76 828.352 1465.13 742.009 1419.26 661.063 1376.09 542.341 1551.47 480.282 1519.09Z" fill="#FFFFFF" transform="matrix(1 0 0 1.00025 505 -117.65)"/><path d="M1098.17 866.127C1095.48 866.127 1095.48 868.825 1095.48 871.523 1098.17 885.014 1108.97 917.393 1084.68 965.961 1038.81 1055 885.014 995.641 885.014 995.641 885.014 995.641 868.825 901.204 855.334 879.618 839.145 858.032 817.559 890.411 817.559 890.411 817.559 890.411 849.938 968.659 849.938 1009.13 825.654 992.943 782.482 938.979 750.104 920.091 717.725 901.204 704.234 947.073 704.234 955.168 717.725 963.263 831.05 1065.79 895.807 1117.06 903.902 1130.55 911.997 1149.44 906.6 1160.23 903.902 1165.63 893.109 1162.93 876.92 1154.84 855.334 1144.04 828.352 1114.36 806.766 1103.57 793.275 1095.48 787.879 1103.57 785.18 1108.97 785.18 1108.97 782.482 1117.06 779.784 1117.06 771.689 1130.55 763.595 1119.76 755.5 1133.25 733.914 1173.72 752.802 1246.58 817.559 1284.35 820.257 1303.24 820.257 1327.52 814.861 1335.62 809.464 1346.41 798.672 1343.71 790.577 1338.31 777.086 1330.22 704.234 1262.76 704.234 1262.76 704.234 1262.76 712.329 1230.39 715.027 1214.2 717.725 1203.4 717.725 1200.71 715.027 1195.31 712.329 1189.91 706.932 1176.42 701.536 1165.63 696.139 1154.84 685.346 1157.53 679.95 1168.33 671.855 1181.82 661.063 1224.99 661.063 1224.99 661.063 1224.99 590.909 1165.63 588.211 1162.93 585.513 1162.93 585.513 1162.93 582.814 1165.63 580.116 1173.72 577.418 1187.21 574.72 1195.31 572.021 1208.8 582.814 1227.69 588.211 1233.08 593.607 1238.48 642.175 1281.65 642.175 1281.65 642.175 1281.65 628.684 1367.99 628.684 1381.49 628.684 1381.49 628.684 1384.18 628.684 1384.18 628.684 1384.18 666.459 1392.28 674.554 1376.09 679.95 1362.6 685.346 1319.43 685.346 1319.43 685.346 1319.43 750.104 1376.09 774.388 1389.58 790.577 1397.68 812.163 1400.37 828.352 1367.99 844.541 1338.31 841.843 1305.94 839.145 1287.05 863.429 1289.75 876.92 1273.56 885.014 1260.07 898.505 1233.08 887.713 1198.01 887.713 1195.31 898.505 1195.31 920.091 1195.31 928.186 1176.42 933.582 1165.63 928.186 1146.74 920.091 1133.25 922.789 1135.95 925.488 1135.95 928.186 1135.95 960.564 1149.44 965.961 1092.78 963.263 1087.38 941.677 1073.89 895.807 1052.3 871.523 1028.02 974.055 1065.79 1063.1 1055 1103.57 974.055 1127.85 928.186 1125.16 898.505 1119.76 882.316 1119.76 871.523 1103.57 866.127 1098.17 866.127ZM863.429 1238.48C844.541 1276.26 768.991 1173.72 785.18 1141.34 798.672 1146.74 885.014 1192.61 863.429 1238.48Z" fill="#FFFFFF" transform="matrix(1 0 0 1.00025 505 -117.65)"/><path d="M1057.7 938.979C1076.59 903.902 1065.79 863.429 1063.1 855.334 1057.7 844.541 1033.42 849.938 1033.42 855.334 1038.81 871.523 1044.21 890.411 1030.72 917.393 1014.53 947.073 984.848 922.789 984.848 922.789 984.848 922.789 1022.62 868.825 992.943 822.955 982.15 809.464 965.961 798.672 955.168 795.973 944.375 795.973 922.789 804.068 909.298 833.748 895.807 868.825 906.6 928.186 944.375 960.564 974.055 982.15 1030.72 992.943 1057.7 938.979ZM936.28 828.352C938.979 822.955 947.073 828.352 957.866 833.748 968.659 841.843 992.943 876.92 974.055 909.298 955.168 898.505 925.488 849.938 936.28 828.352Z" fill="#FFFFFF" transform="matrix(1 0 0 1.00025 505 -117.65)"/><path d="M412.827 1270.86 423.62 1257.37 420.921 1254.67C410.129 1230.39 410.129 1200.71 420.921 1176.42L733.914 485.679C736.613 477.584 747.405 472.188 755.5 472.188L755.5 472.188C766.293 472.188 774.388 477.584 777.086 485.679L890.411 739.311 906.6 733.914 793.275 480.282C787.879 466.791 771.689 455.998 755.5 455.998 755.5 455.998 755.5 455.998 755.5 455.998 739.311 455.998 725.82 464.093 717.725 480.282L407.43 1171.03C393.939 1200.71 393.939 1233.08 407.43 1262.76L412.827 1270.86Z" fill="#B3E3FC" transform="matrix(1 0 0 1.00025 505 -117.65)"/><path d="M1079.29 1114.36 1065.79 1125.16 1087.38 1173.72C1098.17 1198.01 1098.17 1227.69 1087.38 1251.97L777.086 1945.41C774.388 1953.51 763.595 1958.9 755.5 1958.9L755.5 1958.9C744.707 1958.9 736.613 1953.51 733.914 1945.41L679.95 1826.69 663.761 1832.09 717.725 1953.51C723.121 1967 739.311 1977.79 755.5 1977.79 755.5 1977.79 755.5 1977.79 755.5 1977.79 771.689 1977.79 785.18 1969.7 793.275 1953.51L1103.57 1262.76C1117.06 1233.08 1117.06 1200.71 1103.57 1171.03L1079.29 1114.36Z" fill="#B3E3FC" transform="matrix(1 0 0 1.00025 505 -117.65)"/><path d="M1466.5 573.41 1735.32 819.954 1048.33 1569.03 779.507 1322.48Z" fill="#007BFF" fill-rule="evenodd"/><path d="M1275.17 1268.15 1431.01 1411.07 1207.44 1654.84 1051.6 1511.92Z" fill="#007BFF" fill-rule="evenodd"/><path d="M1275.17 684.525 1431.01 827.445 1207.44 1071.22 1051.6 928.297Z" fill="#007BFF" fill-rule="evenodd"/><g clip-path="url(#clip0)"><g clip-path="url(#clip1)"><g clip-path="url(#clip2)"><path d="M1215.56 912.859C1221.07 911.047 1226.3 911.999 1231.59 914.132 1238.46 917.677 1243.62 923.433 1246.4 930.643 1249.12 939.2 1248.29 947.927 1244.22 955.912 1241.46 960.669 1238.15 964.181 1233.18 966.567 1232.73 966.818 1232.27 967.068 1231.79 967.326 1226.01 969 1220.52 967.483 1215.36 964.713 1207.56 960.303 1203.12 953.325 1200.75 944.815 1198.22 932.582 1203.71 918.021 1215.56 912.859Z" fill="#FFFFFF"/><path d="M915.286 1287.68C915.467 1287.35 915.648 1287.02 915.835 1286.68 925.441 1269.31 939.759 1254.89 958.956 1248.58 961.698 1247.81 964.464 1247.32 967.279 1246.9 967.75 1246.83 968.22 1246.76 968.705 1246.69 989.022 1244.1 1008.7 1251.04 1024.85 1263.19 1040.83 1275.57 1053.95 1293.72 1056.55 1314.19 1057.55 1326.75 1055.08 1339.35 1046.73 1349.16 1041.49 1354.87 1034.61 1358.88 1026.82 1359.54 1023.03 1359.65 1020.14 1358.99 1016.99 1356.89 1016.09 1354.79 1016.73 1352.88 1017.19 1350.73 1020.33 1334.78 1016.18 1319.22 1007.52 1305.66 998.846 1292.89 986.851 1281.65 971.319 1278.52 963.922 1277.48 957.553 1279.12 951.59 1283.61 939.722 1293.71 935.147 1309.44 933.834 1324.48 933.011 1335.18 933.463 1345.95 935.731 1356.46 935.858 1357.11 935.983 1357.75 936.107 1358.4 937.388 1365.03 938.995 1371.54 940.857 1378.03 940.989 1378.5 941.122 1378.96 941.259 1379.44 942.134 1382.45 943.136 1385.38 944.235 1388.31 944.482 1388.99 944.729 1389.66 944.975 1390.34 948.684 1400.4 952.941 1410.32 957.986 1419.78 958.715 1421.15 959.417 1422.54 960.117 1423.92 964.746 1433.01 970.246 1441.65 975.679 1450.27 976.333 1451.31 976.981 1452.35 977.629 1453.39 981.212 1459.05 985.263 1464.39 989.26 1469.76 989.821 1470.52 990.382 1471.28 990.941 1472.04 1008.64 1495.97 1030.02 1517.44 1054.2 1534.83 1054.73 1535.23 1054.73 1535.23 1055.28 1535.63 1066.7 1543.93 1079.83 1551.01 1093.13 1555.73 1093.72 1555.95 1093.72 1555.95 1094.32 1556.17 1110.73 1562.2 1130.98 1564.04 1147.31 1556.86 1164.01 1549.12 1174.32 1533.29 1180.69 1516.58 1189.34 1492.86 1189.61 1466.78 1185.68 1442.09 1185.6 1441.54 1185.51 1440.99 1185.42 1440.42 1183.78 1430.57 1181.39 1420.97 1178.63 1411.39 1178.53 1411.04 1178.43 1410.7 1178.33 1410.34 1177.21 1406.46 1176.04 1402.62 1174.59 1398.84 1174.35 1398.17 1174.1 1397.5 1173.86 1396.83 1170.9 1388.81 1167.62 1380.99 1163.86 1373.31 1163.3 1372.13 1162.78 1370.94 1162.27 1369.74 1159.58 1363.7 1155.74 1359.96 1150.82 1355.63 1135.83 1342.33 1123.88 1323.63 1115.75 1305.43 1115.53 1304.95 1115.53 1304.95 1115.32 1304.47 1113.1 1299.52 1111.26 1294.5 1109.66 1289.32 1109.54 1288.95 1109.42 1288.58 1109.3 1288.2 1107.58 1282.71 1106.29 1277.28 1105.59 1271.56 1105.54 1271.22 1105.5 1270.88 1105.46 1270.52 1103.75 1256.3 1105.17 1241.78 1111.43 1228.76 1111.68 1228.24 1111.68 1228.24 1111.93 1227.7 1115.75 1220.16 1121.87 1213.21 1130.02 1210.43 1136.55 1208.42 1142.66 1208.5 1149.2 1210.42 1149.74 1210.57 1150.29 1210.73 1150.86 1210.9 1151.27 1211.02 1151.69 1211.14 1152.11 1211.27 1151.83 1210.94 1151.55 1210.62 1151.25 1210.28 1150.19 1209.05 1149.13 1207.82 1148.07 1206.59 1147.61 1206.06 1147.15 1205.53 1146.69 1205 1139.77 1197.03 1139.77 1197.03 1139.78 1191.66 1140.37 1185.39 1143.31 1179.77 1146.3 1174.35 1146.58 1173.84 1146.85 1173.32 1147.14 1172.79 1151.89 1164.13 1151.89 1164.13 1156.24 1162.54 1158.87 1162.45 1160.57 1163.45 1162.66 1164.97 1163.57 1165.91 1164.44 1166.86 1165.3 1167.85 1165.68 1168.28 1165.68 1168.28 1166.06 1168.71 1168.82 1171.87 1171.53 1175.07 1174.24 1178.27 1175.15 1179.36 1176.07 1180.44 1176.99 1181.53 1179.65 1184.66 1182.3 1187.8 1184.94 1190.94 1193.69 1201.34 1202.74 1211.45 1211.9 1221.49 1212.23 1221.85 1212.57 1222.22 1212.91 1222.6 1234.54 1248.62 1234.54 1248.62 1263.49 1262.67 1265.72 1262.5 1267.18 1261.54 1268.81 1260.05 1271.89 1255.88 1272.31 1251.81 1271.69 1246.78 1270.74 1240.92 1269.39 1235.27 1267.06 1229.8 1266.35 1228.14 1265.71 1226.46 1265.08 1224.77 1263.86 1221.66 1262.48 1218.66 1261.01 1215.67 1260.31 1214.25 1259.64 1212.82 1258.98 1211.38 1253.09 1198.6 1245.89 1186.42 1238.65 1174.36 1238.14 1173.52 1237.64 1172.67 1237.13 1171.83 1232.78 1164.54 1228.29 1157.36 1223.65 1150.25 1222.58 1148.6 1221.52 1146.95 1220.45 1145.3 1215.94 1138.29 1215.94 1138.29 1211.26 1131.4 1208.14 1126.93 1205.15 1122.39 1202.13 1117.85 1200.98 1116.13 1199.81 1114.41 1198.64 1112.7 1191.81 1102.65 1187.08 1092.62 1188.86 1080.15 1190.62 1071.03 1194.68 1062.14 1202.42 1056.6 1206.04 1054.33 1210.6 1052.15 1214.95 1052.98 1217.34 1053.91 1219.16 1054.84 1220.59 1057.02 1221.2 1059.15 1221.14 1061.38 1221.21 1063.58 1221.5 1071.82 1224.56 1078.67 1230.45 1084.39 1242.72 1094.67 1259.56 1097.4 1274.84 1100.07 1294.12 1103.45 1313.24 1106.91 1331.59 1113.93 1332.11 1114.12 1332.11 1114.12 1332.63 1114.32 1336.54 1115.9 1340.21 1117.99 1343.9 1120.02 1344.44 1120.31 1344.44 1120.31 1344.99 1120.62 1353.72 1125.44 1361.08 1131.04 1368.23 1137.99 1368.54 1137.77 1368.86 1137.54 1369.19 1137.3 1379.4 1129.97 1389.74 1122.88 1400.37 1116.17 1404.96 1113.26 1409.45 1110.22 1413.95 1107.18 1414.59 1106.75 1415.23 1106.32 1415.87 1105.89 1416.17 1105.68 1416.48 1105.47 1416.8 1105.26 1418.83 1103.89 1420.86 1102.55 1422.91 1101.22 1437.61 1091.66 1451.55 1080.94 1464.43 1069.05 1464.83 1068.67 1465.23 1068.3 1465.65 1067.92 1481.6 1053.1 1496.01 1036 1506.08 1016.6 1506.31 1016.15 1506.31 1016.15 1506.56 1015.69 1516.14 997.419 1521.86 976.611 1522.84 955.994 1522.88 955.347 1522.88 955.347 1522.91 954.688 1523.34 945.126 1523.07 935.049 1520.16 925.844 1519.96 925.02 1519.96 925.02 1520.42 924.17 1520.25 923.955 1520.06 923.744 1519.88 923.521 1518.9 921.901 1518.53 920.255 1518.05 918.425 1519.04 917.593 1519.57 917.189 1520.89 917.212 1530.58 919.323 1537.76 925.105 1543.09 933.335 1545.25 936.958 1546.86 940.724 1547.85 944.825 1548.01 945.359 1548.17 945.896 1548.34 946.449 1553.75 966.045 1548.82 987.78 1541.69 1006.29 1541.54 1006.68 1541.39 1007.08 1541.24 1007.48 1527.27 1042.95 1499.25 1070.79 1468.71 1092.47 1468.22 1092.82 1467.73 1093.16 1467.23 1093.52 1461.12 1097.86 1454.89 1101.88 1448.42 1105.68 1445.41 1107.45 1442.45 1109.3 1439.49 1111.16 1435.59 1113.6 1431.65 1115.97 1427.66 1118.27 1423.8 1120.49 1420 1122.8 1416.19 1125.11 1413.12 1126.97 1410.05 1128.82 1406.96 1130.65 1396.93 1136.61 1387.03 1142.8 1377.75 1149.89 1378.04 1150.34 1378.33 1150.78 1378.63 1151.24 1382.68 1157.51 1385.81 1164.07 1388.14 1171.17 1388.53 1172.35 1388.96 1173.5 1389.43 1174.66 1396.48 1193.32 1393.31 1216.34 1385.44 1234.18 1379.33 1247.41 1369.71 1259.27 1355.98 1264.85 1355.63 1265 1355.29 1265.16 1354.93 1265.33 1347.03 1268.73 1337.76 1267.87 1329.9 1264.89 1320.67 1260.67 1313.18 1253.41 1309.57 1243.79 1309.41 1243.31 1309.24 1242.82 1309.07 1242.32 1308.89 1241.82 1308.71 1241.32 1308.53 1240.81 1303.43 1225.07 1308.43 1208.33 1315.61 1194.12 1321.15 1183.64 1328.77 1174.2 1336.91 1165.64 1315.83 1152.52 1293.52 1145.99 1269.33 1141.29 1256.18 1138.73 1243.35 1135.48 1230.73 1130.97 1230.9 1131.19 1231.06 1131.42 1231.23 1131.65 1235.12 1136.95 1238.78 1142.34 1242.28 1147.91 1243.5 1149.83 1244.74 1151.74 1246.01 1153.63 1249.46 1158.78 1252.62 1164.09 1255.77 1169.42 1256.69 1170.96 1257.63 1172.48 1258.58 1174 1268.14 1189.66 1276.82 1206.3 1283.79 1223.28 1284.13 1224.09 1284.47 1224.91 1284.82 1225.72 1286.85 1230.61 1288.43 1235.64 1290.01 1240.69 1290.12 1241.03 1290.23 1241.37 1290.34 1241.72 1294.81 1255.75 1296.21 1272.3 1289.62 1285.88 1285.69 1293.33 1280.25 1299.61 1272.2 1302.7 1271.44 1302.93 1270.67 1303.14 1269.9 1303.34 1269.51 1303.46 1269.12 1303.57 1268.72 1303.69 1259.29 1306.19 1249.63 1302.57 1241.24 1298.46 1240.82 1298.26 1240.4 1298.05 1239.97 1297.84 1237.1 1296.41 1234.47 1294.76 1231.86 1292.91 1231.99 1293.14 1232.13 1293.37 1232.27 1293.61 1236.46 1300.78 1240.16 1307.96 1243.11 1315.74 1243.25 1316.09 1243.38 1316.44 1243.52 1316.79 1249.58 1332.7 1253.15 1349.34 1246.11 1365.63 1241.44 1375.26 1235.01 1382.77 1224.63 1386.5 1212.76 1390.14 1201.97 1388.14 1190.69 1383.69 1189.69 1383.31 1189.69 1383.31 1188.26 1383.09 1188.48 1383.52 1188.7 1383.96 1188.92 1384.41 1191.24 1389.13 1193.28 1393.94 1195.21 1398.84 1195.78 1400.28 1196.37 1401.72 1196.95 1403.15 1200.74 1412.65 1203.92 1422.28 1206.78 1432.1 1207.01 1432.87 1207.01 1432.87 1207.24 1433.65 1208.13 1436.76 1208.89 1439.88 1209.55 1443.05 1209.72 1443.81 1209.89 1444.56 1210.06 1445.32 1211.15 1450.31 1212.08 1455.28 1212.77 1460.34 1212.84 1460.86 1212.84 1460.86 1212.92 1461.38 1218.43 1500.24 1212.75 1541.52 1188.78 1573.7 1172.16 1595.4 1150.27 1609.25 1123.07 1612.99 1096.25 1616.23 1069.11 1607.47 1045.85 1594.68 1045.52 1594.5 1045.2 1594.32 1044.86 1594.14 1033.16 1587.68 1022.12 1580.1 1011.64 1571.81 1011.25 1571.5 1010.86 1571.19 1010.45 1570.87 976.915 1544.33 949.731 1508.88 923.014 1457 922.665 1456.2 922.314 1455.4 921.964 1454.59 920.058 1450.22 918.206 1445.83 916.5 1441.37 915.901 1439.82 915.267 1438.29 914.63 1436.76 911.757 1429.57 909.661 1422.1 907.501 1414.67 907.397 1414.32 907.293 1413.96 907.186 1413.59 906.037 1409.66 904.973 1405.72 904.149 1401.7 903.903 1400.67 903.655 1399.63 903.404 1398.59 895.891 1366.38 896.924 1330.09 909.549 1299.35 909.679 1299.02 909.808 1298.69 909.941 1298.36 911.446 1294.66 913.365 1291.17 915.286 1287.68ZM1137.62 1268.02C1138.45 1270.05 1139.35 1272.04 1140.26 1274.03 1140.49 1274.56 1140.49 1274.56 1140.73 1275.1 1143.65 1281.58 1147.28 1287.47 1151.22 1293.38 1151.43 1293.7 1151.65 1294.03 1151.87 1294.37 1164.9 1314.09 1185.36 1338.83 1209.36 1344.92 1213.83 1345.75 1217.52 1345.43 1221.45 1343.07 1224.26 1341.12 1225.93 1337.76 1226.84 1334.52 1227.91 1328.39 1226.85 1322.9 1225.24 1316.98 1225.07 1316.29 1225.07 1316.29 1224.89 1315.58 1223.87 1311.68 1222.22 1308.06 1220.53 1304.41 1220.38 1304.07 1220.22 1303.73 1220.07 1303.38 1209.18 1279.5 1192.11 1255.54 1171.87 1238.79 1171.42 1238.41 1170.97 1238.02 1170.51 1237.63 1163.76 1232.19 1154.98 1226.85 1146.06 1227.48 1142.8 1228.03 1140.32 1229.4 1138.04 1231.79 1130.56 1242.97 1132.94 1256.06 1137.62 1268.02ZM1324.31 1233.66C1326.37 1239.01 1329.89 1242.97 1335.03 1245.58 1339.52 1247.36 1344.06 1247.31 1348.52 1245.49 1356.08 1241.62 1361.03 1234.03 1363.63 1226.09 1365.72 1218.05 1365.4 1210.32 1363.26 1202.34 1363.13 1201.81 1363 1201.28 1362.86 1200.73 1361.21 1194.44 1358.38 1189.01 1354.84 1183.6 1354.49 1183.06 1354.49 1183.06 1354.14 1182.51 1351.4 1178.42 1351.4 1178.42 1347.6 1175.42 1333.75 1191.35 1317.05 1210.87 1324.31 1233.66Z" fill="#FFFFFF"/><path d="M1420.91 681.435C1422.41 680.886 1423.91 680.433 1425.45 680.025 1425.91 679.893 1426.37 679.762 1426.84 679.626 1439.43 676.351 1453.38 679.863 1464.59 685.959 1464.93 686.142 1465.27 686.324 1465.62 686.512 1466.71 687.103 1467.8 687.699 1468.88 688.296 1469.44 688.603 1469.44 688.603 1470.01 688.915 1479.09 693.933 1486.82 699.764 1494.35 706.904 1496.43 697.849 1496.36 689.54 1494.54 680.4 1494.45 679.912 1494.35 679.424 1494.25 678.921 1493.68 676.261 1492.98 673.725 1492 671.188 1491.63 670.228 1491.29 669.26 1490.95 668.287 1488.57 661.577 1485.18 655.335 1481.89 649.036 1483.24 647.42 1484.21 647.236 1486.32 647.04 1491.16 647.287 1495.77 648.086 1499.38 651.501 1504.23 656.895 1506.39 664.201 1508.61 670.967 1508.77 671.439 1508.92 671.91 1509.08 672.396 1512.37 682.957 1512.95 694.944 1511.38 705.86 1511.33 706.268 1511.27 706.676 1511.22 707.096 1510.88 709.275 1510.39 711.164 1509.5 713.182 1508.47 715.608 1507.55 717.818 1507.93 720.486 1509.86 724.297 1513.09 727.332 1516.02 730.39 1517.76 732.264 1519.27 734.256 1520.74 736.346 1521 736.712 1521.26 737.078 1521.53 737.455 1527.98 746.743 1533.29 756.844 1537.57 767.307 1537.7 767.617 1537.82 767.927 1537.95 768.247 1544.91 785.446 1549.33 805.642 1543.56 823.83 1543.43 824.303 1543.29 824.775 1543.15 825.263 1539.18 837.505 1530.54 849.309 1518.98 855.256 1506.69 861.018 1493.66 860.779 1480.99 856.278 1479.41 855.627 1477.98 854.839 1476.51 853.959 1477.28 857.059 1478.59 859.859 1479.91 862.761 1485.23 874.666 1489.8 887.098 1490.96 900.172 1490.99 900.501 1491.02 900.831 1491.05 901.17 1492.12 913.577 1489.91 926.064 1481.93 935.989 1476.96 941.721 1470.39 945.965 1462.76 946.911 1446.72 947.961 1432.5 939.162 1420.7 929.087 1417.44 926.189 1414.33 923.139 1411.28 920.018 1410.97 919.701 1410.66 919.384 1410.34 919.058 1404.52 913.097 1399.38 906.531 1394.18 900.03 1384.62 888.08 1384.62 888.08 1374.9 876.268 1374.49 875.779 1374.09 875.291 1373.67 874.788 1366.22 865.469 1366.22 865.469 1355.67 860.79 1355.16 860.792 1354.64 860.793 1354.11 860.795 1353.61 860.703 1353.12 860.612 1352.6 860.517 1349.8 862.71 1348.47 865.534 1347.98 869.034 1347.42 877.86 1350.44 886.455 1353.85 894.467 1354.16 895.216 1354.46 895.964 1354.77 896.713 1358.83 906.559 1364.03 915.799 1369.45 924.95 1370.23 926.272 1371 927.599 1371.77 928.927 1374.57 933.741 1377.45 938.426 1380.67 942.962 1381.57 944.238 1382.44 945.527 1383.32 946.817 1397.25 967.314 1412.81 986.985 1430.51 1004.38 1435.24 1009.07 1435.24 1009.07 1435.6 1012.14 1435.57 1012.48 1435.54 1012.83 1435.51 1013.19 1435.48 1013.55 1435.46 1013.9 1435.43 1014.26 1434.32 1022.16 1428.36 1030.62 1423.94 1037.07 1423.63 1037.53 1423.63 1037.53 1423.31 1038.01 1421.7 1040.28 1420.01 1041.75 1417.37 1042.77 1413.23 1042.74 1409.81 1039.3 1406.96 1036.6 1406.6 1036.26 1406.24 1035.93 1405.87 1035.58 1404.73 1034.53 1403.6 1033.47 1402.47 1032.41 1401.69 1031.68 1400.92 1030.96 1400.14 1030.24 1398.25 1028.49 1396.36 1026.72 1394.48 1024.96 1394.65 1025.38 1394.82 1025.8 1395 1026.24 1402.2 1044.07 1408.53 1065.12 1400.81 1083.88 1396.84 1092.3 1391.46 1099.47 1382.41 1102.81 1371.56 1106.13 1361.04 1103.91 1351.11 1098.79 1333.99 1089.55 1319.95 1076.8 1306.47 1062.94 1306.08 1062.54 1306.08 1062.54 1305.68 1062.12 1288.5 1044.52 1271.91 1026.12 1256.62 1006.85 1256.39 1006.57 1256.17 1006.29 1255.94 1006 1249.21 997.573 1249.21 997.573 1249.54 992.21 1250.73 985.869 1253.08 980.555 1256.16 974.927 1256.45 974.372 1256.75 973.817 1257.05 973.245 1261.78 964.575 1261.78 964.575 1265.76 963.346 1268.58 962.961 1270.22 964.019 1272.56 965.533 1273.64 966.446 1274.53 967.464 1275.44 968.541 1275.72 968.868 1276.01 969.194 1276.3 969.53 1278.24 971.771 1280.14 974.048 1282.04 976.32 1283.06 977.532 1284.07 978.744 1285.09 979.956 1285.36 980.276 1285.62 980.596 1285.9 980.926 1317.12 1018.4 1317.12 1018.4 1352.55 1051.75 1352.97 1052.1 1353.39 1052.46 1353.82 1052.83 1359.89 1057.88 1366.85 1062.45 1374.94 1062.42 1375.23 1062.58 1375.51 1062.73 1375.8 1062.89 1378.84 1060.92 1381.13 1058.62 1381.99 1055.02 1382.89 1049.07 1381.87 1043.54 1380.14 1037.84 1379.87 1036.93 1379.87 1036.93 1379.59 1036 1378.32 1031.81 1376.87 1027.79 1375.02 1023.83 1374.52 1022.75 1374.05 1021.65 1373.58 1020.56 1370.05 1012.35 1366.04 1004.44 1361.63 996.66 1361.16 995.834 1360.7 995.007 1360.24 994.177 1356.37 987.21 1351.75 981.782 1346.08 976.217 1345.25 975.381 1344.41 974.544 1343.58 973.706 1341.87 971.994 1340.17 970.287 1338.45 968.583 1334.79 964.922 1331.19 961.195 1327.59 957.468 1326.19 956.017 1324.78 954.566 1323.38 953.116 1323.02 952.741 1322.65 952.367 1322.28 951.981 1319.84 949.461 1317.39 946.948 1314.94 944.438 1312.83 942.277 1310.73 940.113 1308.62 937.947 1307.33 936.616 1306.03 935.287 1304.73 933.961 1303.51 932.711 1302.29 931.458 1301.07 930.203 1300.41 929.52 1299.74 928.841 1299.07 928.162 1295.41 924.378 1292.41 920.944 1292.38 915.476 1292.79 908.873 1295.69 903.081 1298.85 897.386 1299.29 896.569 1299.29 896.569 1299.73 895.736 1304.45 887.174 1304.45 887.174 1308.41 885.953 1311.05 885.592 1312.65 886.378 1314.78 887.906 1316.44 889.484 1317.97 891.164 1319.49 892.869 1320.57 894.073 1321.66 895.266 1322.74 896.46 1323.33 897.104 1323.92 897.749 1324.5 898.395 1328.06 902.315 1331.67 906.184 1335.29 910.049 1335.62 910.409 1335.96 910.769 1336.3 911.14 1342.8 918.086 1349.4 924.928 1356.05 931.715 1355.91 931.483 1355.76 931.25 1355.6 931.011 1349.67 921.787 1344.21 912.441 1339.4 902.581 1339.14 902.043 1338.87 901.506 1338.6 900.952 1335.48 894.49 1332.8 887.751 1330.65 880.905 1330.41 880.133 1330.16 879.363 1329.92 878.593 1326.12 866.748 1324.11 854.189 1326.84 841.884 1326.95 841.364 1327.06 840.843 1327.17 840.307 1329.49 831.197 1334.77 822.891 1342.81 817.97 1345.03 816.794 1347.16 816.09 1349.62 815.632 1350.02 815.555 1350.43 815.478 1350.84 815.399 1362.24 813.847 1373.52 820.749 1382.27 827.313 1396 837.901 1406.43 852.276 1416.93 865.907 1421.84 872.285 1426.88 878.495 1432.24 884.511 1432.49 884.804 1432.75 885.097 1433.02 885.398 1439.96 893.226 1449.67 903.872 1460.78 904.715 1462.96 904.603 1464.22 903.851 1465.96 902.608 1468.48 899.678 1469.06 896.34 1469.1 892.561 1469.11 892.11 1469.11 891.658 1469.12 891.193 1468.7 875.276 1459.75 858.882 1452.37 845.159 1451.94 844.334 1451.55 843.488 1451.16 842.641 1449.13 838.453 1446.38 836.018 1442.82 833.095 1420.66 814.858 1400.8 784.718 1395.68 756.195 1395.57 755.699 1395.47 755.203 1395.36 754.693 1393.37 744.788 1391.99 732.452 1396.59 723.092 1397.77 720.524 1397.91 717.886 1398.17 715.108 1399.54 701.25 1407.96 687.274 1420.91 681.435ZM1424.83 721.743C1429.24 730.658 1438.33 736.561 1447.37 740.077 1455.6 742.717 1464.71 743.227 1472.63 739.282 1476.6 736.915 1480.93 734.272 1483.21 730.144 1476.63 723.502 1469.65 716.878 1461.55 712.11 1461.21 711.912 1460.88 711.714 1460.54 711.51 1451.62 706.261 1441.44 700.785 1430.82 703.492 1427.9 704.417 1426.12 705.923 1424.52 708.509 1422.31 712.796 1423.05 717.433 1424.83 721.743ZM1426.69 752.221C1437.11 778.174 1463.71 803.475 1489.04 814.726 1496.27 817.667 1504.41 819.479 1511.87 816.442 1516.34 814.222 1518.7 810.737 1520.58 806.177 1523.41 796.449 1520.33 785.656 1516.33 776.67 1516.21 776.374 1516.08 776.077 1515.95 775.771 1512.14 766.857 1507.01 758.743 1501.42 750.852 1501.22 750.572 1501.02 750.292 1500.82 750.004 1498.37 746.435 1498.37 746.435 1495.28 743.449 1494.75 743.984 1494.75 743.984 1494.22 744.531 1484.47 754.33 1473.26 761.614 1459.05 761.909 1446.95 761.922 1437.28 757.629 1426.93 751.796 1426.85 751.936 1426.77 752.076 1426.69 752.221ZM1356.44 933.034C1357.52 933.078 1357.52 933.078 1357.52 933.078Z" fill="#FFFFFF"/></g></g></g></g></svg>