<svg xmlns="http://www.w3.org/2000/svg" viewBox="2.0044 1.99816 19.99 20">
	<path d="M17.01 8.492c-.09 0-.17.02-.26.03.42-1.31.48-2.78-.95-4.56-.89-1.11-2.17-1.91-3.59-1.96a5.004 5.004 0 0 0-5.2 5c0 .54.11 1.04.26 1.53-.09 0-.17-.03-.26-.03a5.01 5.01 0 0 0-4.89 6.08c.41 1.96 2.04 3.52 4.02 3.85 1.68.28 3.23-.28 4.32-1.33l-1.73 3.45c-.33.66.15 1.45.89 1.45h4.76c.74 0 1.23-.78.89-1.45l-1.73-3.45a5.01 5.01 0 0 0 4.32 1.33c1.98-.33 3.61-1.89 4.02-3.85.67-3.23-1.78-6.08-4.89-6.08z" fill="#000000"/>
</svg>