<svg data-ds-icon="BlackjackDouble" width="20" height="20" viewBox="0 0 24 24" xmlns="http://www.w3.org/2000/svg" fill="none" class="inline-block shrink-0" style="color: inherit !important;"><!----><path fill="currentColor" d="M20 9c0-1.658-1.342-3-3-3s-3 1.342-3 3a1 1 0 1 1-2 0c0-2.762 2.238-5 5-5s5 2.238 5 5a6.41 6.41 0 0 1-3.009 5.438 1 1 0 0 1-.126.066l-3.07 1.36-.001.001A2.99 2.99 0 0 0 14.072 18h6.938l.102.005a1 1 0 0 1 0 1.99L21.01 20h-8a1 1 0 0 1-1-1v-.39c0-1.86 1.022-3.55 2.644-4.414l.332-.16 2.988-1.326A4.41 4.41 0 0 0 20 9M8.293 8.293a1 1 0 1 1 1.414 1.414L7.414 12l2.293 2.293.068.076a1 1 0 0 1-1.406 1.406l-.076-.068L6 13.414l-2.293 2.293a1 1 0 1 1-1.414-1.414L4.586 12 2.293 9.707l-.068-.076A1 1 0 0 1 3.63 8.225l.076.068L6 10.586z"></path></svg>