<svg data-ds-icon="BlackjackHit" width="20" height="20" viewBox="0 0 24 24" xmlns="http://www.w3.org/2000/svg" fill="none" class="inline-block shrink-0" style="color: var(--ds-color-yellow-300,var(--color-yellow-500)) !important;"><!----><path fill="currentColor" d="M12.28 16.11c.78-.78 1.89-1.03 2.89-.76v-5.34c0-1.65 1.35-3 3-3 .29 0 .56.05.83.13V5.01c0-1.66-1.34-3-3-3H8c-1.66 0-3 1.34-3 3v14c0 1.66 1.34 3 3 3h5.93l-1.65-1.65a3 3 0 0 1 0-4.24z"></path><path fill="currentColor" d="M22.65 17.52a.996.996 0 0 0-1.41 0l-2.06 2.06V9.99c0-.55-.45-1-1-1s-1 .45-1 1v9.59l-2.06-2.06a.996.996 0 1 0-1.41 1.41l3.77 3.77c.19.19.44.29.71.29s.52-.11.71-.29l3.77-3.77a.996.996 0 0 0 0-1.41z"></path></svg>