<svg data-ds-icon="BlackjackStand" width="20" height="20" viewBox="0 0 24 24" xmlns="http://www.w3.org/2000/svg" fill="none" class="inline-block shrink-0" style="color: var(--ds-color-accent-orchid-350,var(--color-purple-500)) !important;"><!----><path fill="currentColor" d="M17.36 23a2 2 0 0 0 1.96-1.61L21 15V6.5c0-.83-.67-1.5-1.5-1.5S18 5.67 18 6.5V10h-1V4.5c0-.83-.67-1.5-1.5-1.5S14 3.67 14 4.5V10h-1V2.5c0-.83-.67-1.5-1.5-1.5S10 1.67 10 2.5V10H9V4.5C9 3.67 8.33 3 7.5 3S6 3.67 6 4.5V15l-2.39-3.19a1.223 1.223 0 0 0-2.07 1.28l3.92 8.73C5.78 22.54 6.5 23 7.28 23z"></path></svg>