<svg id="Layer_1" data-name="Layer 1" xmlns="http://www.w3.org/2000/svg" viewBox="0 0 711.75 226.7"><defs><style>.cls-1{fill:#364451;}.cls-2{fill:#637382;}</style></defs><path class="cls-1" d="M257.62,71.25s33.66,36.54,50.52,14c19.34-25.79,48.42-36.73,48.42-36.73v80.91L235,128.51S237.78,86.09,257.62,71.25Z"/><path class="cls-1" d="M455.58,71.25s-33.66,36.54-50.56,14C385.68,59.47,356.6,48.53,356.6,48.53v80.91l121.54-.93S475.41,86.09,455.58,71.25Z"/><path class="cls-2" d="M272.69,56.4c4.71-2.27,10.1,5.09,10.1,5.09s3.19-7-6.33-11.06-13,5.28-21.83,12.34S237.82,75.2,233.14,87.62c-2.17,5.71-7.45,21.57-12.08,39h32.36c1.28-13,3.07-25.81,5.11-32.79C262.8,79.27,268,58.62,272.69,56.4Z"/><path class="cls-2" d="M480.14,87.62c-4.72-12.46-12.71-17.82-21.53-24.89s-12.36-16.42-21.88-12.3-6.33,11.06-6.33,11.06,5.39-7.36,10.11-5.09,9.89,22.87,14.16,37.47c2,7,3.82,19.79,5.1,32.79h32.37C487.54,109.23,482.25,93.37,480.14,87.62Z"/></svg>