<?xml version="1.0" encoding="utf-8"?>
<!-- Generator: Adobe Illustrator 26.0.0, SVG Export Plug-In . SVG Version: 6.00 Build 0)  -->
<svg version="1.1" id="Layer_1" xmlns="http://www.w3.org/2000/svg" xmlns:xlink="http://www.w3.org/1999/xlink" x="0px" y="0px"
	 viewBox="0 0 68.2 106.7" style="enable-background:new 0 0 68.2 106.7;" xml:space="preserve">
<style type="text/css">
	.st0{fill:#637382;}
	.st1{fill:#748599;}
	.st2{fill:#48627A;}
	.st3{fill:#1A2432;}
	.st4{fill:#AFC0D4;}
	.st5{fill:#869CB3;}
</style>
<g id="Layer_5">
	<g id="Layer_2-2">
		<g id="default">
			<path class="st0" d="M20.2,66.4c0,0-20-63,13.9-63c35.5,0,14,63,14,63H20.2z"/>
			<path class="st1" d="M36.3,22c0,0-1.3-2.9-2.2-3.6l0,0c-0.9,0.7-2.2,3.6-2.2,3.6c0.3,3.6,2.2,4.4,2.2,4.4l0,0
				C34.1,26.4,36,25.6,36.3,22z"/>
			<path class="st1" d="M36.3,12.7c0,0-1.3-2.9-2.2-3.6l0,0c-0.9,0.7-2.2,3.6-2.2,3.6c0.3,3.6,2.2,4.4,2.2,4.4l0,0
				C34.1,17.1,36,16.3,36.3,12.7z"/>
			<path class="st1" d="M36.3,4.1c0,0-1.3-2.9-2.2-3.6l0,0c-0.9,0.7-2.2,3.6-2.2,3.6c0.3,3.6,2.2,4.4,2.2,4.4l0,0
				C34.1,8.5,36,7.7,36.3,4.1z"/>
			<polygon class="st2" points="16.1,62 14.9,60.4 14.9,77.7 15,77.6 16.4,78.2 16.4,62 			"/>
			<polygon class="st2" points="42.5,78.2 39.3,73.7 40.9,78.2 			"/>
			<path class="st0" d="M68.2,58.9L55.6,48.5l-21.5,3.9l-21.5-3.9L0,58.9l7.5,6.9L3.1,79.9c0,0,7.4-2.2,11.8-1.9l3,5.4h2L34,86.7
				l0,0l14.2-3.2h2l3-5.4C57.6,77.7,65,80,65,80l-4.4-14.2L68.2,58.9z"/>
			<path class="st0" d="M51.1,73.2l-17,0.7l-17-0.7c0,0,2.1,9.4,5.9,14.3s3.1,7.1,2.3,9.6c1,0,2-0.4,2.9-1c0,0-0.4,4.8,0.9,5.8
				c0,0,2.2-4.5,5-4.4s5,4.4,5,4.4c1.3-0.9,0.9-5.8,0.9-5.8c0.8,0.6,1.8,1,2.8,1c-0.8-2.5-1.5-4.7,2.3-9.6S51.1,73.2,51.1,73.2z"/>
			<path class="st3" d="M34.1,84l-12.8-5.7c0,0,4.3,15,12.8,14.5c8.5,0.5,12.8-14.5,12.8-14.5L34.1,84z"/>
			<path class="st4" d="M24.2,83c0.3,3.1,1.1,6,2.4,8.8c1-1.8,1.5-3.8,1.5-5.8L24.2,83z"/>
			<path class="st4" d="M43.9,83c-0.3,3.1-1.1,6-2.4,8.8C40.5,90,40,88.1,40,86.1L43.9,83z"/>
			<path class="st1" d="M60.8,22.4c0,0-2.9,4.5-6,5.5c0,0-11.7,4-13.6,2.4s-7.1-2.4-7.1-2.4l0,0c0,0-5.1,0.8-7.1,2.4
				s-13.6-2.4-13.6-2.4c-3.2-1-6-5.5-6-5.5c-4.6,6.5-0.7,20.7-0.7,20.7l4.8,6.4c0,2.2-0.4,2.7-0.4,2.7l-2.8-0.5l3.4,3.5v2l-3.4,1.2
				l3.8,1.4l0.6,3.8l-4.1,4.2l5.8-0.3c0,0,4.4,8.8,4.5,9.5s-1.3,4-1.3,4l3.1-1.2l-0.1,3.7l2.2-1.9c2.2,4.2,6.6,6.9,11.4,7l0,0
				c4.8-0.1,9.2-2.8,11.5-7l2.2,1.9l-0.2-3.7l3.2,1.2c0,0-1.4-3.3-1.3-4s4.4-9.6,4.4-9.6l5.8,0.3l-4.1-4.1l0.6-3.8l3.8-1.4l-3.4-1.2
				v-2l3.4-3.5l-2.8,0.5c0,0-0.4-0.5-0.4-2.7l4.8-6.4C61.6,43,65.4,28.9,60.8,22.4z"/>
			<path class="st3" d="M15.3,52.2c3.3-2.6,10.1,5.8,6.8,8.4l-3,3.6l0.6-3.5l-1.9,1.2l0.6-3.2L16.5,57
				C14.8,55.3,15.3,52.2,15.3,52.2z"/>
			<path class="st4" d="M24.1,63c2.8-2.3-2.9-9.4-5.8-7.1c-0.4,1.4-0.4,2.9,0.3,4.2C20.1,63,24.1,63,24.1,63z"/>
			<path class="st3" d="M19.1,56.9c-0.5,1.3-0.3,2.7,0.5,3.8c0.8,1,2.1,1.4,3.4,1.1C25.5,59.7,21.6,54.9,19.1,56.9z"/>
			<path class="st1" d="M15.3,52.2L24.1,63l2.1-1.2c1.6-6.1-1.6-10.4-8.2-13.3L15.3,52.2z"/>
			<path class="st3" d="M52.9,52.2c-3.3-2.6-10.1,5.8-6.8,8.4l3,3.6l-0.6-3.5l1.9,1.2l-0.6-3.2l1.8-1.6
				C53.3,55.3,52.9,52.2,52.9,52.2z"/>
			<path class="st4" d="M44.1,63c-2.8-2.3,2.9-9.4,5.8-7.1c0.4,1.4,0.4,2.9-0.3,4.2C48.1,63,44.1,63,44.1,63z"/>
			<path class="st3" d="M49.1,56.9c0.5,1.3,0.3,2.7-0.5,3.8c-0.9,1-2.2,1.4-3.4,1.1C42.6,59.7,46.6,54.9,49.1,56.9z"/>
			<path class="st1" d="M52.9,52.2L44.1,63L42,61.8c-1.6-6.1,1.5-10.4,8.2-13.3L52.9,52.2z"/>
			<path class="st5" d="M43.3,71.6c-0.3-0.4-3.5,1.2-3.5,1.2s-1-5.3-0.8-5.8c0.8-1.2,1.8-2.4,2.8-3.4l-0.7-1.4
				c-1.5,0.1-5.1-1.5-5.2-3s-1.9-2.2-1.9-2.2l0,0c0,0-1.8,0.8-1.9,2.2s-3.8,3.1-5.2,3l-0.7,1.4c1,1.1,1.9,2.2,2.8,3.4
				c0.2,0.6-0.8,5.8-0.8,5.8s-3.2-1.6-3.5-1.2c-0.7,2.5-1,5.1-1.2,7.6c0.2,0.7,4.2,4.7,7.5,5.5c0.5,1.2,1.7,1.9,2.9,2l0,0
				c1.3-0.1,2.4-0.8,3-2c3.3-0.8,7.3-4.8,7.5-5.5C44.4,76.7,44,74.1,43.3,71.6z"/>
			<path class="st3" d="M30.9,84c0,0-3.3-5.9-4.3-5.7S25.6,82,30.9,84z"/>
			<path class="st4" d="M14.7,43c-1.7-2.2-1.8-5.1-0.4-7.5c0.1,2.3,1.4,4.4,3.4,5.5C17.7,41,17.6,43.5,14.7,43z"/>
			<path class="st4" d="M17.9,48.5c-1.2-1.1-1.5-2.9-0.9-4.4c0.3,1.4,1.2,2.5,2.5,3C19.5,47.1,19.6,48.7,17.9,48.5z"/>
			<path class="st3" d="M37.3,84c0,0,3.3-5.9,4.3-5.7S42.5,82,37.3,84z"/>
			<path class="st4" d="M53.4,43c1.7-2.2,1.8-5.1,0.4-7.5c-0.1,2.3-1.4,4.4-3.3,5.5C50.5,41,50.5,43.5,53.4,43z"/>
			<path class="st4" d="M50.2,48.5c1.2-1.1,1.6-2.9,1-4.4c-0.3,1.4-1.2,2.5-2.5,3C48.7,47.1,48.5,48.7,50.2,48.5z"/>
			<path class="st4" d="M37,28.5c0,0-1.7-3.9-3-4.9l0,0c-1.3,1-3,4.9-3,4.9c0.4,4.8,3,5.9,3,5.9l0,0C34,34.4,36.6,33.4,37,28.5z"/>
		</g>
	</g>
</g>
</svg>
