<svg width="1142" height="1308" xmlns="http://www.w3.org/2000/svg" xmlns:xlink="http://www.w3.org/1999/xlink" xml:space="preserve" overflow="hidden"><defs><clipPath id="clip0"><path d="M1272.52 1405.36 1601.92 829.714 1830.68 960.622 1501.28 1536.26Z" fill-rule="evenodd" clip-rule="evenodd"/></clipPath><clipPath id="clip1"><path d="M1272.52 1405.36 1601.92 829.714 1830.68 960.622 1501.28 1536.26Z" fill-rule="evenodd" clip-rule="evenodd"/></clipPath><clipPath id="clip2"><path d="M1272.52 1405.36 1601.92 829.714 1830.68 960.622 1501.28 1536.26Z" fill-rule="evenodd" clip-rule="evenodd"/></clipPath></defs><g transform="translate(-990 -528)"><path d="M1014.5 0C1084.77-3.9202e-14 1141.73 56.9613 1141.73 127.227L1141.73 1173.07C1141.73 1243.33 1084.77 1300.29 1014.5 1300.29L127.227 1300.29C56.9613 1300.29 2.86232e-05 1243.33 2.86232e-05 1173.07L2.86232e-05 127.227C2.86232e-05 56.9613 56.9613-2.39929e-05 127.227-2.39929e-05Z" fill="#FFFFFF" transform="matrix(1.00024 0 0 1 990 531.853)"/><path d="M47.9996 137.599 1093.84 137.599C1131.91 137.599 1162.8 168.495 1162.8 206.564L1162.8 1093.84C1162.8 1131.91 1131.91 1162.8 1093.84 1162.8L47.9996 1162.8C9.93095 1162.8-20.9653 1131.91-20.9653 1093.84L-20.9653 206.564C-20.9653 168.495 9.93095 137.599 47.9996 137.599Z" fill="#0080FF" transform="matrix(6.12469e-17 1 -1.00024 6.12323e-17 2211.36 611.08)"/><path d="M133.847 104.496C151.703 104.496 166.178 118.971 166.178 136.826L166.178 136.937C166.178 154.793 151.703 169.268 133.847 169.268L133.737 169.268C115.881 169.268 101.406 154.793 101.406 136.937L101.406 136.826C101.406 118.971 115.881 104.496 133.737 104.496Z" fill="#FFFFFF" transform="matrix(1.00024 0 0 1 990 531.853)"/><path d="M1007.99 104.496C1025.85 104.496 1040.32 118.971 1040.32 136.826L1040.32 136.937C1040.32 154.793 1025.85 169.268 1007.99 169.268L1007.88 169.268C990.026 169.268 975.551 154.793 975.551 136.937L975.551 136.826C975.551 118.971 990.026 104.496 1007.88 104.496Z" fill="#FFFFFF" transform="matrix(1.00024 0 0 1 990 531.853)"/><path d="M133.847 1131.14C151.703 1131.14 166.178 1145.61 166.178 1163.47L166.178 1163.58C166.178 1181.43 151.703 1195.91 133.847 1195.91L133.737 1195.91C115.881 1195.91 101.406 1181.43 101.406 1163.58L101.406 1163.47C101.406 1145.61 115.881 1131.14 133.737 1131.14Z" fill="#FFFFFF" transform="matrix(1.00024 0 0 1 990 531.853)"/><path d="M1007.99 1131.14C1025.85 1131.14 1040.32 1145.61 1040.32 1163.47L1040.32 1163.58C1040.32 1181.43 1025.85 1195.91 1007.99 1195.91L1007.88 1195.91C990.026 1195.91 975.551 1181.43 975.551 1163.58L975.551 1163.47C975.551 1145.61 990.026 1131.14 1007.88 1131.14Z" fill="#FFFFFF" transform="matrix(1.00024 0 0 1 990 531.853)"/><path d="M402.976 836.517C369.763 818.2 361.376 788.297 381.349 748.353 396.355 720.105 417.983 725.07 424.603 728.38 437.955 735.001 441.265 759.939 441.265 759.939 441.265 759.939 449.541 763.249 457.927 746.587 466.313 729.925 462.893 709.953 437.955 696.712 408.052 681.705 378.038 704.987 361.487 736.656 348.135 763.249 316.577 833.097 384.769 869.731 446.341 901.289 511.224 788.187 549.403 809.814 592.657 831.442 579.306 884.627 571.03 901.289 562.754 917.951 547.747 917.951 541.127 914.641 506.148 896.324 514.534 858.035 514.534 858.035 511.224 856.379 499.527 853.069 492.906 866.31 474.589 901.289 497.872 929.537 526.12 944.544 551.058 957.896 574.34 947.854 587.692 921.262 612.63 871.386 617.595 803.194 564.409 774.835 514.534 748.242 441.265 856.379 403.086 836.407Z" fill="#FFFFFF" transform="matrix(1.00024 0 0 1 990 531.853)"/><path d="M783.883 433.872C782.228 433.872 782.228 435.528 782.228 437.183 783.883 445.458 790.504 465.431 775.608 495.444 747.36 550.285 652.464 513.761 652.464 513.761 652.464 513.761 642.533 455.5 634.147 442.259 624.216 428.907 610.864 448.879 610.864 448.879 610.864 448.879 630.836 497.099 630.836 522.037 615.83 512.106 589.237 478.782 569.264 467.196 549.292 455.61 541.016 483.858 541.016 488.824 549.292 493.789 619.25 557.016 659.084 588.575 664.05 596.85 669.015 608.547 665.705 615.167 664.05 618.478 657.429 616.823 647.388 611.857 634.036 605.237 617.485 586.919 604.133 580.299 595.857 575.333 592.437 580.299 590.781 583.609 590.781 583.609 589.126 588.575 587.471 588.575 582.506 596.85 577.54 590.23 572.464 598.506 559.113 623.443 570.809 668.353 610.754 691.636 612.409 703.332 612.409 718.229 609.099 723.194 605.788 729.815 599.168 728.16 594.092 724.849 585.816 719.884 540.906 678.284 540.906 678.284 540.906 678.284 545.872 658.312 547.527 648.381 549.182 641.76 549.182 640.105 547.527 636.685 545.872 633.264 542.561 624.988 539.251 618.367 535.941 611.747 529.32 613.402 525.899 620.023 520.934 628.298 514.203 655.002 514.203 655.002 514.203 655.002 470.948 618.367 469.293 616.712 468.189 616.712 467.086 617.264 465.982 618.367 464.327 623.333 462.672 631.719 461.017 636.685 459.362 644.96 465.982 656.657 469.293 659.967 472.603 663.277 502.506 689.87 502.506 689.87 502.506 689.87 494.231 743.056 494.231 751.442L494.231 753.097C494.231 753.097 517.513 758.063 522.479 748.132 525.789 739.856 529.099 713.153 529.099 713.153 529.099 713.153 569.044 748.132 583.94 756.408 593.871 761.373 607.223 763.028 617.154 743.056 627.085 724.739 625.429 704.767 623.774 693.181 638.781 694.836 647.057 684.905 652.022 676.519 660.298 659.857 653.678 638.229 653.678 636.574 660.298 636.574 673.65 636.574 678.615 624.878 681.926 618.257 678.615 606.561 673.65 598.285 675.305 599.94 676.96 599.94 678.615 599.94 698.588 608.216 701.898 573.347 700.243 570.037 686.891 561.761 658.643 548.409 643.636 533.403 706.863 556.685 761.704 550.065 786.642 500.189 801.649 471.941 799.994 453.624 796.573 443.583 796.573 436.962 786.642 433.652 783.221 433.652ZM639.112 663.498C627.416 686.781 580.851 623.554 590.892 603.581 599.168 606.892 652.464 635.14 639.112 663.498Z" fill="#FFFFFF" transform="matrix(1.00024 0 0 1 990 531.853)"/><path d="M758.946 478.782C770.642 457.155 763.911 432.217 762.256 427.252 758.946 420.631 743.939 423.941 743.939 427.252 747.249 437.183 750.559 448.879 742.284 465.541 732.353 483.858 714.036 468.851 714.036 468.851 714.036 468.851 737.318 435.638 719.001 407.279 712.38 399.004 702.339 392.273 695.719 390.618 689.098 390.618 675.746 395.583 667.471 413.9 659.195 435.528 665.815 472.162 689.098 492.134 707.415 505.486 742.284 512.106 758.946 478.782ZM684.022 410.59C685.677 407.279 690.643 410.59 697.374 413.9 703.994 418.866 719.001 440.493 707.305 460.465 695.608 453.845 677.401 423.831 684.022 410.59Z" fill="#FFFFFF" transform="matrix(1.00024 0 0 1 990 531.853)"/><path d="M361.376 683.47 367.997 675.195 366.342 673.539C359.721 658.533 359.721 640.326 366.342 625.319L559.333 199.502C560.989 194.536 567.609 191.226 572.685 191.226L572.685 191.226C579.306 191.226 584.382 194.536 586.037 199.502L655.884 355.859 665.815 352.549 595.968 196.192C592.657 187.916 582.616 181.185 572.685 181.185L572.685 181.185C562.754 181.185 554.368 186.15 549.403 196.192L358.066 622.009C349.79 640.326 349.79 660.298 358.066 678.615L361.376 683.581Z" fill="#FFFFFF" transform="matrix(1.00024 0 0 1 990 531.853)"/><path d="M772.187 586.919 763.911 593.54 777.263 623.443C783.883 638.45 783.883 656.657 777.263 671.664L585.926 1099.14C584.271 1104.1 577.651 1107.41 572.575 1107.41L572.575 1107.41C565.954 1107.41 560.878 1104.1 559.223 1099.14L526.01 1025.98 516.079 1029.29 549.292 1104.1C552.602 1112.38 562.644 1119.11 572.575 1119.11L572.575 1119.11C582.506 1119.11 590.892 1114.14 595.857 1104.1L787.194 678.284C795.469 659.967 795.469 639.995 787.194 621.678L772.187 586.699Z" fill="#FFFFFF" transform="matrix(1.00024 0 0 1 990 531.853)"/><path d="M1705.01 849.514 1872.26 1001.53 1430.06 1488.03 1262.81 1336.02Z" fill="#0080FF" fill-rule="evenodd"/><path d="M1514.22 1238.14 1669.86 1379.61 1550.33 1511.11 1394.69 1369.65Z" fill="#0080FF" fill-rule="evenodd"/><path d="M1558.35 882.052 1713.99 1023.52 1594.46 1155.02 1438.82 1013.56Z" fill="#0080FF" fill-rule="evenodd"/><g clip-path="url(#clip0)"><g clip-path="url(#clip1)"><g clip-path="url(#clip2)"><path d="M1532.1 1058.36C1535.6 1057.27 1538.89 1057.92 1542.21 1059.32 1546.51 1061.63 1549.71 1065.32 1551.39 1069.9 1553.02 1075.32 1552.41 1080.82 1549.75 1085.82 1547.96 1088.8 1545.84 1090.98 1542.68 1092.43 1542.39 1092.59 1542.1 1092.74 1541.8 1092.9 1538.13 1093.9 1534.68 1092.88 1531.45 1091.08 1526.58 1088.22 1523.84 1083.77 1522.43 1078.38 1520.96 1070.63 1524.57 1061.49 1532.1 1058.36Z" fill="#FFFFFF"/><path d="M1338.78 1291.88C1338.9 1291.67 1339.01 1291.46 1339.13 1291.25 1345.37 1280.38 1354.56 1271.43 1366.74 1267.64 1368.48 1267.18 1370.23 1266.9 1372.01 1266.66 1372.31 1266.63 1372.6 1266.59 1372.91 1266.54 1385.76 1265.12 1398.11 1269.7 1408.18 1277.53 1418.14 1285.51 1426.23 1297.1 1427.67 1310.04 1428.17 1317.98 1426.48 1325.91 1421.11 1332.02 1417.75 1335.57 1413.37 1338.02 1408.44 1338.36 1406.05 1338.4 1404.23 1337.95 1402.26 1336.59 1401.72 1335.26 1402.14 1334.06 1402.46 1332.71 1404.6 1322.67 1402.13 1312.81 1396.81 1304.16 1391.46 1296.01 1384.01 1288.8 1374.24 1286.67 1369.58 1285.93 1365.54 1286.9 1361.73 1289.67 1354.14 1295.93 1351.09 1305.81 1350.11 1315.29 1349.48 1322.04 1349.66 1328.84 1350.98 1335.5 1351.06 1335.9 1351.13 1336.31 1351.2 1336.72 1351.94 1340.92 1352.89 1345.05 1354 1349.16 1354.08 1349.46 1354.16 1349.75 1354.24 1350.05 1354.76 1351.96 1355.36 1353.82 1356.03 1355.68 1356.18 1356.11 1356.32 1356.54 1356.47 1356.97 1358.71 1363.36 1361.3 1369.66 1364.39 1375.69 1364.83 1376.56 1365.26 1377.44 1365.69 1378.32 1368.52 1384.11 1371.9 1389.61 1375.24 1395.11 1375.64 1395.77 1376.04 1396.44 1376.44 1397.1 1378.65 1400.71 1381.15 1404.12 1383.62 1407.55 1383.96 1408.03 1384.31 1408.52 1384.65 1409 1395.58 1424.29 1408.86 1438.06 1423.94 1449.28 1424.28 1449.53 1424.28 1449.53 1424.62 1449.79 1431.74 1455.15 1439.95 1459.75 1448.3 1462.86 1448.67 1463.01 1448.67 1463.01 1449.05 1463.16 1459.35 1467.13 1472.1 1468.49 1482.48 1464.13 1493.1 1459.41 1499.77 1449.53 1503.96 1439.05 1509.66 1424.16 1510.1 1407.7 1507.87 1392.08 1507.82 1391.73 1507.77 1391.38 1507.72 1391.02 1506.79 1384.79 1505.37 1378.71 1503.73 1372.63 1503.67 1372.41 1503.61 1372.19 1503.55 1371.97 1502.89 1369.5 1502.18 1367.07 1501.31 1364.67 1501.16 1364.24 1501.02 1363.82 1500.87 1363.4 1499.08 1358.3 1497.09 1353.33 1494.79 1348.45 1494.45 1347.7 1494.14 1346.94 1493.83 1346.18 1492.2 1342.34 1489.8 1339.94 1486.75 1337.16 1477.42 1328.61 1470.07 1316.68 1465.12 1305.12 1464.99 1304.81 1464.99 1304.81 1464.86 1304.5 1463.51 1301.36 1462.4 1298.17 1461.44 1294.89 1461.37 1294.65 1461.3 1294.42 1461.23 1294.18 1460.19 1290.69 1459.44 1287.25 1459.05 1283.63 1459.03 1283.42 1459 1283.2 1458.98 1282.98 1458.04 1273.99 1459.09 1264.84 1463.17 1256.68 1463.33 1256.35 1463.33 1256.35 1463.5 1256.02 1465.98 1251.3 1469.92 1246.97 1475.09 1245.3 1479.23 1244.1 1483.09 1244.21 1487.2 1245.49 1487.54 1245.59 1487.89 1245.7 1488.24 1245.81 1488.5 1245.89 1488.76 1245.97 1489.03 1246.06 1488.85 1245.85 1488.68 1245.64 1488.5 1245.42 1487.84 1244.64 1487.18 1243.85 1486.52 1243.06 1486.24 1242.72 1485.96 1242.38 1485.67 1242.04 1481.38 1236.94 1481.38 1236.94 1481.44 1233.55 1481.88 1229.6 1483.79 1226.09 1485.73 1222.7 1485.91 1222.37 1486.09 1222.05 1486.28 1221.72 1489.37 1216.3 1489.37 1216.3 1492.13 1215.34 1493.79 1215.31 1494.85 1215.96 1496.15 1216.94 1496.72 1217.55 1497.26 1218.15 1497.79 1218.78 1498.03 1219.06 1498.03 1219.06 1498.27 1219.34 1499.98 1221.36 1501.65 1223.41 1503.33 1225.46 1503.9 1226.15 1504.46 1226.84 1505.03 1227.54 1506.68 1229.54 1508.32 1231.55 1509.96 1233.56 1515.37 1240.21 1520.98 1246.69 1526.66 1253.11 1526.87 1253.35 1527.07 1253.58 1527.29 1253.82 1540.67 1270.46 1540.67 1270.46 1558.8 1279.63 1560.21 1279.54 1561.14 1278.95 1562.19 1278.03 1564.17 1275.43 1564.48 1272.86 1564.14 1269.68 1563.6 1265.98 1562.8 1262.4 1561.39 1258.92 1560.96 1257.86 1560.57 1256.8 1560.19 1255.72 1559.45 1253.75 1558.61 1251.84 1557.71 1249.94 1557.29 1249.03 1556.88 1248.13 1556.48 1247.21 1552.89 1239.08 1548.47 1231.33 1544.02 1223.64 1543.71 1223.1 1543.4 1222.57 1543.09 1222.03 1540.42 1217.38 1537.66 1212.8 1534.8 1208.27 1534.14 1207.22 1533.49 1206.17 1532.83 1205.11 1530.06 1200.64 1530.06 1200.64 1527.17 1196.24 1525.25 1193.39 1523.4 1190.49 1521.54 1187.6 1520.84 1186.5 1520.12 1185.41 1519.4 1184.31 1515.19 1177.9 1512.3 1171.52 1513.55 1163.67 1514.76 1157.94 1517.41 1152.37 1522.35 1148.95 1524.66 1147.55 1527.56 1146.22 1530.3 1146.79 1531.8 1147.4 1532.93 1148.01 1533.81 1149.4 1534.18 1150.75 1534.12 1152.16 1534.14 1153.55 1534.24 1158.74 1536.1 1163.1 1539.76 1166.77 1547.4 1173.39 1558 1175.28 1567.62 1177.12 1579.75 1179.45 1591.78 1181.82 1603.3 1186.44 1603.62 1186.57 1603.62 1186.57 1603.95 1186.7 1606.4 1187.74 1608.7 1189.09 1611 1190.41 1611.34 1190.6 1611.34 1190.6 1611.68 1190.8 1617.14 1193.93 1621.73 1197.54 1626.17 1202 1626.38 1201.86 1626.58 1201.72 1626.79 1201.58 1633.31 1197.06 1639.91 1192.68 1646.69 1188.56 1649.61 1186.77 1652.47 1184.89 1655.35 1183.02 1655.75 1182.75 1656.16 1182.49 1656.57 1182.22 1656.76 1182.1 1656.96 1181.97 1657.16 1181.84 1658.46 1181 1659.75 1180.17 1661.06 1179.35 1670.43 1173.47 1679.34 1166.84 1687.59 1159.46 1687.85 1159.23 1688.11 1159 1688.37 1158.77 1698.59 1149.57 1707.86 1138.93 1714.41 1126.79 1714.57 1126.51 1714.57 1126.51 1714.72 1126.22 1720.96 1114.78 1724.78 1101.71 1725.61 1088.7 1725.64 1088.3 1725.64 1088.3 1725.67 1087.88 1726.04 1081.85 1725.97 1075.49 1724.22 1069.65 1724.1 1069.13 1724.1 1069.13 1724.41 1068.59 1724.3 1068.46 1724.18 1068.32 1724.07 1068.18 1723.47 1067.15 1723.25 1066.1 1722.96 1064.94 1723.6 1064.43 1723.94 1064.18 1724.77 1064.21 1730.87 1065.64 1735.34 1069.36 1738.62 1074.61 1739.95 1076.92 1740.93 1079.31 1741.5 1081.91 1741.6 1082.25 1741.7 1082.59 1741.8 1082.94 1745.01 1095.36 1741.68 1109.03 1737 1120.64 1736.9 1120.89 1736.8 1121.13 1736.7 1121.39 1727.52 1143.63 1709.55 1160.92 1690.05 1174.29 1689.74 1174.51 1689.43 1174.72 1689.11 1174.94 1685.21 1177.62 1681.24 1180.09 1677.12 1182.42 1675.2 1183.51 1673.31 1184.65 1671.42 1185.79 1668.94 1187.29 1666.43 1188.75 1663.89 1190.16 1661.43 1191.52 1659 1192.94 1656.58 1194.36 1654.62 1195.5 1652.66 1196.64 1650.69 1197.76 1644.3 1201.42 1637.99 1205.23 1632.06 1209.61 1632.24 1209.89 1632.42 1210.18 1632.61 1210.47 1635.1 1214.47 1637 1218.64 1638.4 1223.15 1638.64 1223.9 1638.9 1224.62 1639.18 1225.36 1643.45 1237.21 1641.21 1251.71 1636.06 1262.88 1632.07 1271.17 1625.88 1278.57 1617.15 1281.94 1616.93 1282.04 1616.71 1282.14 1616.49 1282.23 1611.46 1284.3 1605.62 1283.67 1600.69 1281.7 1594.91 1278.95 1590.26 1274.29 1588.08 1268.18 1587.98 1267.87 1587.88 1267.57 1587.78 1267.25 1587.67 1266.93 1587.56 1266.61 1587.45 1266.29 1584.39 1256.31 1587.72 1245.79 1592.39 1236.89 1596 1230.34 1600.9 1224.45 1606.13 1219.14 1592.96 1210.64 1578.94 1206.29 1563.72 1203.08 1555.45 1201.33 1547.39 1199.15 1539.47 1196.17 1539.57 1196.32 1539.67 1196.46 1539.77 1196.61 1542.18 1199.99 1544.43 1203.43 1546.58 1206.98 1547.33 1208.21 1548.1 1209.42 1548.88 1210.63 1551 1213.92 1552.94 1217.3 1554.88 1220.7 1555.44 1221.68 1556.02 1222.65 1556.6 1223.61 1562.48 1233.59 1567.79 1244.19 1572.02 1254.97 1572.22 1255.49 1572.43 1256.01 1572.64 1256.52 1573.87 1259.63 1574.82 1262.82 1575.77 1266.03 1575.83 1266.24 1575.9 1266.46 1575.96 1266.68 1578.64 1275.58 1579.35 1286.04 1575.06 1294.54 1572.5 1299.21 1569 1303.11 1563.89 1304.98 1563.41 1305.12 1562.92 1305.25 1562.44 1305.36 1562.19 1305.43 1561.94 1305.5 1561.68 1305.57 1555.71 1307.05 1549.65 1304.67 1544.39 1301.99 1544.13 1301.86 1543.87 1301.73 1543.6 1301.59 1541.81 1300.66 1540.16 1299.59 1538.53 1298.39 1538.61 1298.54 1538.7 1298.69 1538.78 1298.84 1541.35 1303.41 1543.62 1307.98 1545.4 1312.92 1545.48 1313.14 1545.56 1313.36 1545.64 1313.59 1549.31 1323.69 1551.39 1334.23 1546.79 1344.43 1543.74 1350.46 1539.6 1355.14 1533.02 1357.39 1525.49 1359.57 1518.7 1358.19 1511.62 1355.27 1511 1355.02 1511 1355.02 1510.1 1354.87 1510.23 1355.14 1510.36 1355.42 1510.5 1355.71 1511.92 1358.71 1513.15 1361.77 1514.32 1364.88 1514.67 1365.8 1515.03 1366.71 1515.38 1367.62 1517.67 1373.65 1519.58 1379.76 1521.29 1385.99 1521.42 1386.48 1521.42 1386.48 1521.56 1386.97 1522.09 1388.95 1522.54 1390.92 1522.92 1392.93 1523.02 1393.41 1523.12 1393.89 1523.22 1394.37 1523.86 1397.53 1524.39 1400.68 1524.78 1403.87 1524.82 1404.2 1524.82 1404.2 1524.86 1404.53 1527.95 1429.11 1523.94 1455.11 1508.49 1475.18 1497.78 1488.7 1483.82 1497.22 1466.61 1499.31 1449.65 1501.08 1432.61 1495.27 1418.06 1486.97 1417.86 1486.85 1417.66 1486.73 1417.45 1486.61 1410.13 1482.42 1403.24 1477.52 1396.71 1472.19 1396.46 1471.99 1396.22 1471.79 1395.96 1471.58 1375.07 1454.49 1358.27 1431.84 1341.93 1398.82 1341.72 1398.31 1341.51 1397.8 1341.3 1397.29 1340.14 1394.51 1339.01 1391.72 1337.98 1388.89 1337.62 1387.91 1337.24 1386.93 1336.85 1385.96 1335.11 1381.39 1333.86 1376.66 1332.57 1371.95 1332.51 1371.72 1332.45 1371.5 1332.39 1371.26 1331.7 1368.77 1331.07 1366.28 1330.59 1363.73 1330.44 1363.07 1330.3 1362.41 1330.15 1361.76 1325.74 1341.35 1326.76 1318.46 1335.04 1299.18 1335.12 1298.98 1335.21 1298.77 1335.3 1298.56 1336.28 1296.24 1337.53 1294.06 1338.78 1291.88ZM1479.31 1281.73C1479.81 1283.02 1480.35 1284.28 1480.91 1285.55 1481.05 1285.88 1481.05 1285.88 1481.2 1286.23 1482.97 1290.35 1485.2 1294.1 1487.63 1297.87 1487.76 1298.08 1487.89 1298.29 1488.03 1298.5 1496.05 1311.08 1508.71 1326.9 1523.8 1330.99 1526.62 1331.56 1528.95 1331.4 1531.45 1329.95 1533.25 1328.75 1534.33 1326.64 1534.94 1324.61 1535.68 1320.75 1535.06 1317.27 1534.11 1313.52 1534.01 1313.08 1534.01 1313.08 1533.9 1312.63 1533.3 1310.16 1532.29 1307.86 1531.26 1305.54 1531.17 1305.32 1531.08 1305.1 1530.98 1304.88 1524.36 1289.7 1513.83 1274.41 1501.22 1263.63 1500.94 1263.38 1500.66 1263.13 1500.37 1262.88 1496.17 1259.38 1490.68 1255.92 1485.04 1256.23 1482.98 1256.54 1481.4 1257.38 1479.94 1258.86 1475.1 1265.84 1476.47 1274.13 1479.31 1281.73ZM1597.49 1261.94C1598.73 1265.34 1600.91 1267.87 1604.13 1269.57 1606.94 1270.74 1609.81 1270.75 1612.65 1269.65 1617.45 1267.29 1620.66 1262.54 1622.38 1257.56 1623.78 1252.5 1623.65 1247.62 1622.39 1242.56 1622.31 1242.23 1622.23 1241.89 1622.15 1241.55 1621.17 1237.56 1619.44 1234.1 1617.26 1230.65 1617.05 1230.31 1617.05 1230.31 1616.83 1229.96 1615.14 1227.35 1615.14 1227.35 1612.78 1225.41 1603.87 1235.33 1593.13 1247.48 1597.49 1261.94Z" fill="#FFFFFF"/><path d="M1664.06 914.381C1665.02 914.049 1665.97 913.779 1666.95 913.537 1667.24 913.458 1667.53 913.38 1667.83 913.299 1675.81 911.36 1684.57 913.718 1691.59 917.68 1691.8 917.798 1692.01 917.917 1692.23 918.039 1692.91 918.423 1693.59 918.81 1694.27 919.198 1694.62 919.397 1694.62 919.397 1694.98 919.6 1700.66 922.86 1705.48 926.619 1710.16 931.201 1711.57 925.507 1711.6 920.263 1710.55 914.475 1710.49 914.166 1710.44 913.857 1710.38 913.539 1710.05 911.854 1709.63 910.247 1709.04 908.635 1708.82 908.026 1708.61 907.411 1708.41 906.794 1706.97 902.534 1704.89 898.56 1702.88 894.551 1703.75 893.545 1704.36 893.439 1705.69 893.336 1708.75 893.542 1711.65 894.093 1713.89 896.285 1716.9 899.739 1718.19 904.372 1719.52 908.665 1719.62 908.964 1719.71 909.263 1719.81 909.572 1721.77 916.271 1722.02 923.842 1720.92 930.716 1720.88 930.973 1720.84 931.229 1720.8 931.494 1720.57 932.866 1720.24 934.053 1719.65 935.318 1718.98 936.838 1718.38 938.224 1718.59 939.912 1719.77 942.337 1721.77 944.285 1723.6 946.245 1724.68 947.445 1725.61 948.718 1726.52 950.052 1726.68 950.286 1726.84 950.519 1727 950.76 1730.98 956.688 1734.23 963.117 1736.82 969.764 1736.9 969.961 1736.97 970.158 1737.05 970.361 1741.27 981.287 1743.86 994.079 1740.03 1005.5 1739.94 1005.8 1739.85 1006.09 1739.75 1006.4 1737.13 1014.09 1731.55 1021.45 1724.2 1025.08 1716.38 1028.6 1708.16 1028.31 1700.21 1025.34 1699.22 1024.92 1698.32 1024.4 1697.41 1023.83 1697.86 1025.8 1698.66 1027.58 1699.46 1029.42 1702.7 1036.99 1705.46 1044.89 1706.05 1053.15 1706.07 1053.36 1706.09 1053.57 1706.1 1053.78 1706.65 1061.62 1705.13 1069.48 1699.99 1075.66 1696.79 1079.23 1692.6 1081.84 1687.78 1082.36 1677.65 1082.86 1668.76 1077.16 1661.42 1070.68 1659.38 1068.82 1657.46 1066.87 1655.56 1064.86 1655.37 1064.66 1655.18 1064.46 1654.98 1064.25 1651.36 1060.43 1648.19 1056.23 1644.97 1052.08 1639.06 1044.44 1639.06 1044.44 1633.04 1036.88 1632.79 1036.57 1632.54 1036.26 1632.28 1035.94 1627.67 1029.98 1627.67 1029.98 1621.07 1026.92 1620.74 1026.91 1620.42 1026.91 1620.08 1026.91 1619.77 1026.84 1619.45 1026.78 1619.13 1026.71 1617.34 1028.07 1616.47 1029.84 1616.13 1032.04 1615.69 1037.61 1617.5 1043.06 1619.58 1048.16 1619.76 1048.63 1619.95 1049.11 1620.13 1049.58 1622.59 1055.84 1625.78 1061.72 1629.11 1067.55 1629.59 1068.4 1630.06 1069.24 1630.53 1070.09 1632.25 1073.15 1634.02 1076.14 1636.01 1079.04 1636.56 1079.85 1637.1 1080.67 1637.64 1081.49 1646.23 1094.57 1655.85 1107.15 1666.84 1118.3 1669.78 1121.32 1669.78 1121.32 1669.97 1123.25 1669.95 1123.47 1669.93 1123.69 1669.91 1123.92 1669.89 1124.14 1669.87 1124.36 1669.85 1124.59 1669.07 1129.57 1665.22 1134.85 1662.37 1138.87 1662.16 1139.16 1662.16 1139.16 1661.96 1139.46 1660.92 1140.87 1659.84 1141.79 1658.16 1142.4 1655.55 1142.34 1653.43 1140.13 1651.65 1138.4 1651.43 1138.19 1651.2 1137.97 1650.97 1137.75 1650.26 1137.07 1649.56 1136.39 1648.86 1135.71 1648.38 1135.25 1647.89 1134.78 1647.41 1134.32 1646.23 1133.19 1645.06 1132.06 1643.89 1130.93 1644 1131.19 1644.1 1131.46 1644.21 1131.74 1648.57 1143.07 1652.35 1156.42 1647.29 1168.18 1644.7 1173.45 1641.23 1177.92 1635.49 1179.94 1628.6 1181.93 1621.98 1180.42 1615.77 1177.09 1605.06 1171.08 1596.32 1162.89 1587.96 1154.01 1587.72 1153.75 1587.72 1153.75 1587.47 1153.48 1576.81 1142.19 1566.52 1130.42 1557.06 1118.1 1556.92 1117.92 1556.79 1117.74 1556.64 1117.55 1552.48 1112.17 1552.48 1112.17 1552.75 1108.79 1553.56 1104.8 1555.1 1101.47 1557.1 1097.94 1557.29 1097.6 1557.48 1097.25 1557.68 1096.89 1560.75 1091.47 1560.75 1091.47 1563.28 1090.73 1565.06 1090.52 1566.08 1091.2 1567.54 1092.18 1568.22 1092.77 1568.77 1093.42 1569.33 1094.11 1569.51 1094.32 1569.69 1094.53 1569.87 1094.74 1571.07 1096.18 1572.24 1097.63 1573.42 1099.09 1574.05 1099.86 1574.68 1100.64 1575.31 1101.41 1575.47 1101.62 1575.64 1101.82 1575.81 1102.03 1595.13 1126 1595.13 1126 1617.16 1147.41 1617.42 1147.64 1617.68 1147.87 1617.95 1148.11 1621.73 1151.35 1626.07 1154.31 1631.18 1154.37 1631.36 1154.47 1631.53 1154.58 1631.71 1154.68 1633.66 1153.47 1635.13 1152.04 1635.7 1149.78 1636.33 1146.03 1635.74 1142.53 1634.71 1138.91 1634.55 1138.34 1634.55 1138.34 1634.38 1137.74 1633.62 1135.09 1632.75 1132.54 1631.62 1130.02 1631.32 1129.33 1631.03 1128.63 1630.75 1127.94 1628.6 1122.72 1626.15 1117.69 1623.45 1112.73 1623.16 1112.21 1622.88 1111.68 1622.59 1111.15 1620.22 1106.72 1617.36 1103.24 1613.84 1099.67 1613.32 1099.14 1612.8 1098.6 1612.29 1098.06 1611.23 1096.96 1610.17 1095.87 1609.1 1094.78 1606.83 1092.43 1604.59 1090.04 1602.36 1087.65 1601.49 1086.72 1600.62 1085.79 1599.75 1084.86 1599.52 1084.62 1599.3 1084.38 1599.06 1084.13 1597.55 1082.52 1596.03 1080.91 1594.51 1079.3 1593.2 1077.91 1591.89 1076.53 1590.59 1075.14 1589.78 1074.28 1588.98 1073.43 1588.17 1072.58 1587.41 1071.78 1586.66 1070.98 1585.9 1070.17 1585.49 1069.74 1585.07 1069.3 1584.66 1068.86 1582.39 1066.44 1580.53 1064.24 1580.56 1060.79 1580.89 1056.63 1582.78 1053 1584.83 1049.44 1585.12 1048.93 1585.12 1048.93 1585.41 1048.41 1588.47 1043.05 1588.47 1043.05 1590.98 1042.32 1592.65 1042.12 1593.65 1042.63 1594.98 1043.62 1596.01 1044.63 1596.96 1045.71 1597.91 1046.8 1598.57 1047.57 1599.25 1048.33 1599.92 1049.1 1600.29 1049.51 1600.65 1049.92 1601.01 1050.34 1603.22 1052.85 1605.46 1055.32 1607.7 1057.8 1607.91 1058.03 1608.12 1058.26 1608.33 1058.5 1612.36 1062.95 1616.45 1067.34 1620.59 1071.69 1620.5 1071.54 1620.4 1071.39 1620.31 1071.24 1616.66 1065.36 1613.3 1059.4 1610.37 1053.13 1610.21 1052.79 1610.05 1052.45 1609.88 1052.09 1607.98 1047.98 1606.35 1043.7 1605.07 1039.36 1604.93 1038.87 1604.78 1038.38 1604.63 1037.89 1602.35 1030.38 1601.21 1022.43 1603.06 1014.69 1603.13 1014.36 1603.21 1014.04 1603.29 1013.7 1604.84 1007.97 1608.26 1002.79 1613.39 999.761 1614.8 999.041 1616.15 998.619 1617.7 998.355 1617.96 998.31 1618.22 998.266 1618.48 998.22 1625.69 997.357 1632.74 1001.83 1638.19 1006.06 1646.75 1012.88 1653.19 1022.06 1659.67 1030.77 1662.71 1034.85 1665.83 1038.82 1669.15 1042.67 1669.31 1042.86 1669.47 1043.04 1669.64 1043.24 1673.94 1048.25 1679.96 1055.06 1686.96 1055.71 1688.34 1055.66 1689.14 1055.2 1690.25 1054.43 1691.87 1052.61 1692.27 1050.51 1692.33 1048.12 1692.34 1047.84 1692.35 1047.55 1692.36 1047.26 1692.26 1037.21 1686.78 1026.77 1682.25 1018.03 1681.99 1017.51 1681.76 1016.97 1681.52 1016.43 1680.28 1013.77 1678.57 1012.2 1676.35 1010.32 1662.55 998.588 1650.32 979.363 1647.38 961.309 1647.32 960.995 1647.26 960.681 1647.2 960.357 1646.04 954.086 1645.29 946.286 1648.29 940.425 1649.06 938.816 1649.18 937.153 1649.37 935.402 1650.37 926.669 1655.83 917.934 1664.06 914.381ZM1666.13 939.861C1668.82 945.532 1674.5 949.35 1680.17 951.661 1685.34 953.411 1691.08 953.826 1696.12 951.417 1698.65 949.962 1701.41 948.339 1702.89 945.756 1698.8 941.497 1694.47 937.246 1689.4 934.154 1689.19 934.026 1688.98 933.897 1688.77 933.765 1683.2 930.362 1676.83 926.802 1670.09 928.402 1668.24 928.956 1667.11 929.889 1666.07 931.505 1664.63 934.188 1665.05 937.122 1666.13 939.861ZM1666.99 959.116C1673.31 975.602 1689.84 991.841 1705.71 999.2 1710.24 1001.13 1715.36 1002.36 1720.1 1000.51 1722.95 999.159 1724.47 996.984 1725.71 994.125 1727.59 988.013 1725.75 981.17 1723.32 975.458 1723.25 975.27 1723.17 975.081 1723.09 974.887 1720.77 969.222 1717.62 964.049 1714.17 959.011 1714.05 958.833 1713.93 958.654 1713.8 958.47 1712.29 956.192 1712.29 956.192 1710.37 954.276 1710.03 954.609 1710.03 954.609 1709.69 954.948 1703.44 961.034 1696.29 965.517 1687.32 965.56 1679.68 965.444 1673.62 962.637 1667.15 958.85 1667.1 958.938 1667.05 959.026 1666.99 959.116ZM1620.81 1072.52C1621.5 1072.56 1621.5 1072.56 1621.5 1072.56Z" fill="#FFFFFF"/></g></g></g></g></svg>