<?xml version="1.0" encoding="UTF-8"?><svg id="Layer_2" xmlns="http://www.w3.org/2000/svg" viewBox="0 0 230.07 258.71"><defs><style>.cls-1{fill:#304553;}.cls-2{fill:#ff9d00;}.cls-3{fill:#324453;}.cls-4{fill:#fff;}.cls-5{fill:#8ea3b2;}.cls-6{fill:#213542;}.cls-7{fill:#c5d3dd;}.cls-8{fill:#ff7f00;}.cls-9{fill:#ffc200;}</style></defs><g id="AE_Cards"><g id="Ref"><g id="House_Paper"><rect class="cls-6" x="11.95" y="11.9" width="141.2" height="160.81" rx="15.74" ry="15.74"/><ellipse class="cls-5" cx="70.61" cy="79.5" rx="14.28" ry="8.67" transform="translate(-34.26 61.94) rotate(-38.88)"/><path class="cls-1" d="M58.35,85.9s6.61-.28,11.5-5.74l-11.47,2.57s-.35,1.72-.04,3.17Z"/><circle class="cls-4" cx="60.42" cy="64.95" r="17.89"/><circle class="cls-4" cx="34.29" cy="48.35" r="4.53"/><circle class="cls-4" cx="34.38" cy="71.08" r="5.19"/><circle class="cls-4" cx="43.24" cy="38.19" r="4.24"/><circle class="cls-4" cx="56.78" cy="34.81" r="4.11"/><path class="cls-4" d="M35.22,76.19l-1.41-10.27s5.73-1.14,11.97-1.14l4.26,14.75s-4.76-4.42-14.82-3.33Z"/><path class="cls-4" d="M31.09,51.55s7.95,7.42,12.14,13.52l5.69-11.17s-5.25-2.98-11.43-8.75l-6.4,6.4Z"/><path class="cls-4" d="M42.79,39.32l-3.21,1s2.2,6,7.01,14.66l10.86-6.09c-3.93-4.3-7.59-8.73-10.88-13.32l-3.79,3.74Z"/><path class="cls-4" d="M52.78,35.74s1.31,9.14,3.79,12.89l11.57,1.37s-4.35-6.97-7.44-16.43l-7.91,2.17Z"/><path class="cls-7" d="M66.36,50.12c-.49-4.03-.43-7.94.22-11.73l7.5.42s-.51,9.55,2.36,18.16c-2.69-3.84-5.92-6.43-10.08-6.85Z"/><circle class="cls-4" cx="70.31" cy="38.85" r="3.77"/><path class="cls-5" d="M74.15,60.91c-.25,7.11-4.73,9.46-4.73,9.46-3.94-7.02-9.73-6.44-9.73-6.44,4.53,3.25,4.26,10.35-.96,11.98-3.22,1-6.93-.71-8.51-2.03-2.39-2-10.46-2.17-13.7-.66-1.66.78-1.53,1.97-1.01,2.94,7.57-.74,12.08,1.64,13.77,2.78.24.19.49.38.73.55.01.01.02.02.02.02h0c6.99,4.99,16.85,4.35,23.12-1.92,5.58-5.58,6.61-13.94,3.27-20.63h0c-.6-1.8-1.05-3.65-1.39-5.44-.65,2.07-.73,4.87-.89,9.38Z"/></g><g id="Player_Paper"><rect class="cls-3" x="76.66" y="85.63" width="141.46" height="161.1" rx="15.77" ry="15.77"/><ellipse class="cls-8" cx="166.78" cy="191.27" rx="19.08" ry="11.58" transform="translate(-83.11 147.07) rotate(-38.88)"/><path class="cls-1" d="M150.4,199.82s8.82-.37,15.37-7.66l-15.32,3.43s-.46,2.3-.05,4.24Z"/><circle class="cls-9" cx="153.17" cy="171.84" r="23.9"/><circle class="cls-9" cx="118.26" cy="149.66" r="6.04"/><circle class="cls-9" cx="118.38" cy="180.02" r="6.93"/><circle class="cls-9" cx="130.22" cy="136.09" r="5.66"/><circle class="cls-9" cx="148.31" cy="131.58" r="5.48"/><path class="cls-9" d="M119.5,186.86l-1.88-13.72s7.65-1.53,15.99-1.53l5.69,19.7s-6.36-5.9-19.79-4.45Z"/><path class="cls-9" d="M113.99,153.94s10.62,9.92,16.22,18.06l7.6-14.92s-7.02-3.98-15.27-11.69l-8.55,8.55Z"/><path class="cls-9" d="M129.62,137.61l-4.29,1.34s2.94,8.01,9.36,19.58l14.51-8.13c-5.25-5.75-10.14-11.66-14.53-17.8l-5.06,5Z"/><path class="cls-9" d="M142.97,132.82s1.75,12.21,5.06,17.21l15.45,1.83s-5.81-9.32-9.94-21.94l-10.57,2.9Z"/><path class="cls-8" d="M161.1,152.03c-.65-5.38-.57-10.61.3-15.66l10.02.56s-.68,12.76,3.15,24.26c-3.59-5.13-7.9-8.59-13.46-9.15Z"/><circle class="cls-9" cx="166.38" cy="136.98" r="5.03"/><path class="cls-8" d="M171.51,166.44c-.34,9.5-6.32,12.64-6.32,12.64-5.26-9.37-13-8.6-13-8.6,6.05,4.34,5.68,13.83-1.28,16-4.3,1.34-9.26-.95-11.37-2.72-3.2-2.67-13.98-2.9-18.29-.88-2.22,1.04-2.05,2.63-1.35,3.93,10.11-.99,16.14,2.19,18.39,3.72.32.26.65.5.98.74.02.02.03.03.03.03h0c9.33,6.66,22.51,5.81,30.89-2.57,7.46-7.46,8.83-18.62,4.37-27.56h0c-.8-2.4-1.41-4.87-1.86-7.26-.87,2.76-.97,6.5-1.19,12.52Z"/></g></g><g id="Res_Stroke_Draw"><path class="cls-2" d="M137.42,11.95c8.69,0,15.74,7.05,15.74,15.74v57.96h49.22c8.69,0,15.74,7.05,15.74,15.74v129.63c0,8.69-7.05,15.74-15.74,15.74h-109.99c-8.69,0-15.74-7.05-15.74-15.74v-58.35H27.69c-8.69,0-15.74-7.05-15.74-15.74V27.69c0-8.69,7.05-15.74,15.74-15.74h109.73M137.42,0H27.69C12.42,0,0,12.42,0,27.69v129.24c0,15.27,12.42,27.69,27.69,27.69h37v46.4c0,15.27,12.42,27.69,27.69,27.69h109.99c15.27,0,27.69-12.42,27.69-27.69V101.39c0-15.27-12.42-27.69-27.69-27.69h-37.27V27.69c0-15.27-12.42-27.69-27.69-27.69h0Z"/></g></g></svg>