<?xml version="1.0" encoding="UTF-8"?><svg id="Layer_2" xmlns="http://www.w3.org/2000/svg" viewBox="0 0 230.07 258.71"><defs><style>.cls-1{fill:#e9113c;}.cls-2{fill:#304553;}.cls-3{fill:#324453;}.cls-4{fill:#fff;}.cls-5{fill:#8ea3b2;}.cls-6{fill:#213542;}.cls-7{fill:#ff7f00;}.cls-8{fill:#ffc200;}</style></defs><g id="AE_Cards"><g id="Ref"><g id="House_Rock"><rect class="cls-6" x="11.95" y="11.93" width="141.23" height="160.84" rx="15.74" ry="15.74"/><ellipse class="cls-5" cx="59.28" cy="80.46" rx="16.41" ry="9.96" transform="translate(-16.23 14.99) rotate(-12.69)"/><path class="cls-2" d="M43.39,80.83s6.95,3.06,14.77-.08l-13.12-3.17s-1.23,1.6-1.65,3.25Z"/><circle class="cls-4" cx="56.15" cy="60.29" r="20.56"/><path class="cls-5" d="M61.51,49.12c.36-2.36.69-5.18.7-7.69,0-2.22-1.23-4.25-3.19-5.28h0c-4.11-2.15-8.99,1.01-8.7,5.64.13,2,.21,4.2.21,6.53,0,2.84,2.17,5.21,4.99,5.48h0c2.92.28,5.55-1.77,6-4.67Z"/><path class="cls-5" d="M54.24,52.08c-.61-2.3-1.45-5.02-2.45-7.33-.88-2.04-2.83-3.4-5.04-3.56h0c-4.63-.32-7.83,4.53-5.71,8.65.92,1.78,1.87,3.76,2.82,5.9,1.14,2.6,4.07,3.9,6.77,3.02h0c2.79-.91,4.38-3.85,3.62-6.69Z"/><path class="cls-4" d="M50.79,45.65c-.61-2.3-1.45-5.02-2.45-7.33-.88-2.04-2.83-3.4-5.04-3.56h0c-4.63-.32-6.91,4.17-5.71,8.65.5,1.87.99,4.26,1.53,6.74.61,2.77,5.36,3.06,8.05,2.18h0c2.79-.91,4.38-3.85,3.62-6.69Z"/><path class="cls-4" d="M60.36,44.24c.36-2.36.69-5.18.7-7.69,0-2.22-1.23-4.25-3.19-5.28h0c-4.11-2.15-8.99,1.01-8.7,5.64.13,2,.21,4.2.21,6.53,0,2.84,2.17,5.21,4.99,5.48h0c2.92.28,5.55-1.77,6-4.67Z"/><path class="cls-5" d="M42.18,69.01s15.42.19,12.83-12.3l-15.75,6.81,2.93,5.5Z"/><path class="cls-5" d="M73.02,48.56c-1.49.56-2.77,1.71-3.43,3.4-.72,1.87-1.57,3.9-2.55,6.02-1.18,2.58-.22,5.63,2.23,7.07,2.41,1.41,5.45.79,7.14-1.37.54-3.25.32-6.67-.82-10.01-.63-1.86-1.51-3.57-2.58-5.1Z"/><path class="cls-5" d="M69.93,53.42c.82-2.24,1.7-4.94,2.2-7.41.45-2.17-.36-4.41-2.08-5.81h0c-3.6-2.92-9.01-.79-9.64,3.81-.27,1.98-.63,4.15-1.08,6.45-.56,2.78,1.09,5.53,3.81,6.36h0c2.81.86,5.79-.64,6.8-3.39Z"/><path class="cls-5" d="M72.36,63.09c-2.07,3.86-4.7,5.7-6.69,6.57-1.33.58-2.88-.09-3.41-1.44-.11-.27-.23-.52-.36-.75-.75-1.33-2.64-1.3-3.41.01-1.78,3.03-4.58,4.05-9.63,3.26-3.83-.6-6.78-4.25-7.75-6.41l-8.39-1.67c.15.32,4.08,5.24,5.32,7.36,0,.02.01.03.01.03h0c4.67,8.68,15.07,13.26,24.72,9.97,8.59-2.93,13.97-11.24,13.93-19.84h0c.3-2.16.77-4.29,1.32-6.31-1.72,1.8-3.22,4.65-5.67,9.22Z"/><path class="cls-4" d="M69.77,48.4c.82-2.24,1.7-4.94,2.2-7.41.45-2.17-.36-4.41-2.08-5.81h0c-3.6-2.92-9.01-.79-9.64,3.81-.27,1.98-.63,4.15-1.08,6.45-.56,2.78,1.09,5.53,3.81,6.36h0c2.81.86,5.79-.64,6.8-3.39Z"/><path class="cls-4" d="M51.16,51.77c-3.34-.54-8.12-1.17-12.25-1.13-2.86.02-5.46,1.63-6.75,4.18h0c-2.68,5.29,1.43,11.5,7.35,11.05,1.94-.15,4.03-.27,6.23-.33,4.88-.15,8.87-3.96,9.28-8.82h0c.2-2.4-1.47-4.56-3.85-4.94Z"/><path class="cls-4" d="M76.76,56.67c1.23-2.04,2.6-4.53,3.57-6.85.85-2.05.48-4.4-.95-6.1h0c-2.98-3.55-8.7-2.48-10.19,1.91-.64,1.89-1.4,3.96-2.29,6.12-1.07,2.63.03,5.64,2.53,6.96h0c2.6,1.37,5.81.47,7.32-2.04Z"/></g><g id="Player_Scissors"><rect class="cls-3" x="76.66" y="85.71" width="141.46" height="161.1" rx="15.77" ry="15.77"/><ellipse class="cls-7" cx="134.44" cy="195.63" rx="12.26" ry="20.21" transform="translate(-98.15 243.05) rotate(-67.03)"/><path class="cls-2" d="M118.27,184.6s4.76,8.05,14.84,10.52l-10.85-12.59s-2.38.72-3.98,2.07Z"/><circle class="cls-8" cx="145.78" cy="173.2" r="25.31"/><path class="cls-7" d="M125.54,171.9s15.29,11.26,21.67-3.1l-20.65-4.5-1.02,7.6Z"/><path class="cls-7" d="M171.09,173.58c-1.89-.51-4-.28-5.87.94-2.06,1.35-4.37,2.77-6.87,4.2-3.03,1.73-4.26,5.48-2.84,8.67,1.4,3.14,4.89,4.71,8.13,3.75,2.88-2.86,5.11-6.45,6.36-10.6.7-2.32,1.05-4.65,1.08-6.96Z"/><path class="cls-7" d="M161.2,177.7c2.74-1.04,5.96-2.41,8.67-3.93,2.38-1.34,3.81-3.9,3.72-6.63h0c-.19-5.71-6.54-9.02-11.32-5.9-2.06,1.35-4.37,2.77-6.87,4.2-3.03,1.73-4.26,5.48-2.84,8.67h0c1.47,3.3,5.27,4.87,8.65,3.59Z"/><circle class="cls-8" cx="141.29" cy="129.52" r="6.4"/><path class="cls-8" d="M134.89,129.74s1.06,15.35-.48,25.71l16.66-6.07s-2.56-8.15-3.38-20.08l-12.8.45Z"/><path class="cls-8" d="M167.32,134.66l-3.09-3.62s-5.31,6.23-12.52,17.55c5.19,2.29,8.55,6.13,11.32,10.47,3.4-7.51,7.12-14.73,11.27-21.57l-6.98-2.84Z"/><circle class="cls-8" cx="169.05" cy="134.61" r="6"/><path class="cls-7" d="M159.99,187.64c-4.85,2.37-8.79,2.32-11.41,1.76-1.75-.37-2.81-2.15-2.38-3.89.09-.34.14-.68.18-1.01.2-1.86-1.71-3.2-3.42-2.44-3.96,1.76-7.48.76-11.97-3.65-3.4-3.35-3.74-9.12-3.15-11.98l-7.2-7.69c-.08.43.32,8.17.04,11.19,0,.03-.01.04-.01.04h0c-1.57,12.04,5.62,23.94,17.63,27.58,10.69,3.24,21.99-1.07,28.11-9.71h0c1.85-1.94,3.85-3.74,5.86-5.36-3.01.57-6.56,2.34-12.29,5.15Z"/><path class="cls-8" d="M164.21,171.87c2.74-1.04,5.96-2.41,8.67-3.93,2.38-1.34,3.81-3.9,3.72-6.63h0c-.19-5.71-6.54-9.02-11.32-5.9-2.06,1.35-4.37,2.77-6.87,4.2-3.03,1.73-4.26,5.48-2.84,8.67h0c1.47,3.3,5.27,4.87,8.65,3.59Z"/><path class="cls-8" d="M146.91,161.09c-2.95-2.94-7.28-6.99-11.45-9.93-2.87-2.02-6.63-2.29-9.75-.67h0c-6.48,3.36-6.82,12.54-.58,16.33,2.04,1.24,4.22,2.62,6.47,4.14,4.99,3.35,11.72,2.41,15.62-2.16h0c1.92-2.26,1.8-5.62-.3-7.71Z"/><path class="cls-8" d="M167.16,185.15c2.74-1.04,5.96-2.41,8.67-3.93,2.38-1.34,3.81-3.9,3.72-6.63h0c-.19-5.71-6.54-9.02-11.32-5.9-2.06,1.35-4.37,2.77-6.87,4.2-3.03,1.73-4.26,5.48-2.84,8.67h0c1.47,3.3,5.27,4.87,8.65,3.59Z"/></g></g><g id="Res_Stroke_Loss"><path class="cls-1" d="M137.42,11.95c8.69,0,15.74,7.05,15.74,15.74v57.96h49.22c8.69,0,15.74,7.05,15.74,15.74v129.63c0,8.69-7.05,15.74-15.74,15.74h-109.99c-8.69,0-15.74-7.05-15.74-15.74v-58.35H27.69c-8.69,0-15.74-7.05-15.74-15.74V27.69c0-8.69,7.05-15.74,15.74-15.74h109.73M137.42,0H27.69C12.42,0,0,12.42,0,27.69v129.24c0,15.27,12.42,27.69,27.69,27.69h37v46.4c0,15.27,12.42,27.69,27.69,27.69h109.99c15.27,0,27.69-12.42,27.69-27.69V101.39c0-15.27-12.42-27.69-27.69-27.69h-37.27V27.69c0-15.27-12.42-27.69-27.69-27.69h0Z"/></g></g></svg>