<?xml version="1.0" encoding="UTF-8"?><svg id="Layer_2" xmlns="http://www.w3.org/2000/svg" viewBox="0 0 230.07 258.71"><defs><style>.cls-1{fill:#304553;}.cls-2{fill:#324453;}.cls-3{fill:#fff;}.cls-4{fill:#2bff1a;}.cls-5{fill:#8ea3b2;}.cls-6{fill:#213542;}.cls-7{fill:#c5d3dd;}.cls-8{fill:#ff7f00;}.cls-9{fill:#ffc200;}</style></defs><g id="AE_Cards"><g id="Ref"><g id="House_Paper"><rect class="cls-6" x="11.95" y="11.9" width="141.2" height="160.81" rx="15.74" ry="15.74"/><ellipse class="cls-5" cx="70.61" cy="79.5" rx="14.28" ry="8.67" transform="translate(-34.26 61.94) rotate(-38.88)"/><path class="cls-1" d="M58.35,85.9s6.61-.28,11.5-5.74l-11.47,2.57s-.35,1.72-.04,3.17Z"/><circle class="cls-3" cx="60.42" cy="64.95" r="17.89"/><circle class="cls-3" cx="34.29" cy="48.35" r="4.53"/><circle class="cls-3" cx="34.38" cy="71.08" r="5.19"/><circle class="cls-3" cx="43.24" cy="38.19" r="4.24"/><circle class="cls-3" cx="56.78" cy="34.81" r="4.11"/><path class="cls-3" d="M35.22,76.19l-1.41-10.27s5.73-1.14,11.97-1.14l4.26,14.75s-4.76-4.42-14.82-3.33Z"/><path class="cls-3" d="M31.09,51.55s7.95,7.42,12.14,13.52l5.69-11.17s-5.25-2.98-11.43-8.75l-6.4,6.4Z"/><path class="cls-3" d="M42.79,39.32l-3.21,1s2.2,6,7.01,14.66l10.86-6.09c-3.93-4.3-7.59-8.73-10.88-13.32l-3.79,3.74Z"/><path class="cls-3" d="M52.78,35.74s1.31,9.14,3.79,12.89l11.57,1.37s-4.35-6.97-7.44-16.43l-7.91,2.17Z"/><path class="cls-7" d="M66.36,50.12c-.49-4.03-.43-7.94.22-11.73l7.5.42s-.51,9.55,2.36,18.16c-2.69-3.84-5.92-6.43-10.08-6.85Z"/><circle class="cls-3" cx="70.31" cy="38.85" r="3.77"/><path class="cls-5" d="M74.15,60.91c-.25,7.11-4.73,9.46-4.73,9.46-3.94-7.02-9.73-6.44-9.73-6.44,4.53,3.25,4.26,10.35-.96,11.98-3.22,1-6.93-.71-8.51-2.03-2.39-2-10.46-2.17-13.7-.66-1.66.78-1.53,1.97-1.01,2.94,7.57-.74,12.08,1.64,13.77,2.78.24.19.49.38.73.55.01.01.02.02.02.02h0c6.99,4.99,16.85,4.35,23.12-1.92,5.58-5.58,6.61-13.94,3.27-20.63h0c-.6-1.8-1.05-3.65-1.39-5.44-.65,2.07-.73,4.87-.89,9.38Z"/></g><g id="Player_Scissors"><rect class="cls-2" x="76.66" y="85.71" width="141.46" height="161.1" rx="15.77" ry="15.77"/><ellipse class="cls-8" cx="134.44" cy="195.63" rx="12.26" ry="20.21" transform="translate(-98.15 243.05) rotate(-67.03)"/><path class="cls-1" d="M118.27,184.6s4.76,8.05,14.84,10.52l-10.85-12.59s-2.38.72-3.98,2.07Z"/><circle class="cls-9" cx="145.78" cy="173.2" r="25.31"/><path class="cls-8" d="M125.54,171.9s15.29,11.26,21.67-3.1l-20.65-4.5-1.02,7.6Z"/><path class="cls-8" d="M171.09,173.58c-1.89-.51-4-.28-5.87.94-2.06,1.35-4.37,2.77-6.87,4.2-3.03,1.73-4.26,5.48-2.84,8.67,1.4,3.14,4.89,4.71,8.13,3.75,2.88-2.86,5.11-6.45,6.36-10.6.7-2.32,1.05-4.65,1.08-6.96Z"/><path class="cls-8" d="M161.2,177.7c2.74-1.04,5.96-2.41,8.67-3.93,2.38-1.34,3.81-3.9,3.72-6.63h0c-.19-5.71-6.54-9.02-11.32-5.9-2.06,1.35-4.37,2.77-6.87,4.2-3.03,1.73-4.26,5.48-2.84,8.67h0c1.47,3.3,5.27,4.87,8.65,3.59Z"/><circle class="cls-9" cx="141.29" cy="129.52" r="6.4"/><path class="cls-9" d="M134.89,129.74s1.06,15.35-.48,25.71l16.66-6.07s-2.56-8.15-3.38-20.08l-12.8.45Z"/><path class="cls-9" d="M167.32,134.66l-3.09-3.62s-5.31,6.23-12.52,17.55c5.19,2.29,8.55,6.13,11.32,10.47,3.4-7.51,7.12-14.73,11.27-21.57l-6.98-2.84Z"/><circle class="cls-9" cx="169.05" cy="134.61" r="6"/><path class="cls-8" d="M159.99,187.64c-4.85,2.37-8.79,2.32-11.41,1.76-1.75-.37-2.81-2.15-2.38-3.89.09-.34.14-.68.18-1.01.2-1.86-1.71-3.2-3.42-2.44-3.96,1.76-7.48.76-11.97-3.65-3.4-3.35-3.74-9.12-3.15-11.98l-7.2-7.69c-.08.43.32,8.17.04,11.19,0,.03-.01.04-.01.04h0c-1.57,12.04,5.62,23.94,17.63,27.58,10.69,3.24,21.99-1.07,28.11-9.71h0c1.85-1.94,3.85-3.74,5.86-5.36-3.01.57-6.56,2.34-12.29,5.15Z"/><path class="cls-9" d="M164.21,171.87c2.74-1.04,5.96-2.41,8.67-3.93,2.38-1.34,3.81-3.9,3.72-6.63h0c-.19-5.71-6.54-9.02-11.32-5.9-2.06,1.35-4.37,2.77-6.87,4.2-3.03,1.73-4.26,5.48-2.84,8.67h0c1.47,3.3,5.27,4.87,8.65,3.59Z"/><path class="cls-9" d="M146.91,161.09c-2.95-2.94-7.28-6.99-11.45-9.93-2.87-2.02-6.63-2.29-9.75-.67h0c-6.48,3.36-6.82,12.54-.58,16.33,2.04,1.24,4.22,2.62,6.47,4.14,4.99,3.35,11.72,2.41,15.62-2.16h0c1.92-2.26,1.8-5.62-.3-7.71Z"/><path class="cls-9" d="M167.16,185.15c2.74-1.04,5.96-2.41,8.67-3.93,2.38-1.34,3.81-3.9,3.72-6.63h0c-.19-5.71-6.54-9.02-11.32-5.9-2.06,1.35-4.37,2.77-6.87,4.2-3.03,1.73-4.26,5.48-2.84,8.67h0c1.47,3.3,5.27,4.87,8.65,3.59Z"/></g></g><g id="Res_Stroke_Win"><path class="cls-4" d="M137.42,11.95c8.69,0,15.74,7.05,15.74,15.74v57.96h49.22c8.69,0,15.74,7.05,15.74,15.74v129.63c0,8.69-7.05,15.74-15.74,15.74h-109.99c-8.69,0-15.74-7.05-15.74-15.74v-58.35H27.69c-8.69,0-15.74-7.05-15.74-15.74V27.69c0-8.69,7.05-15.74,15.74-15.74h109.73M137.42,0H27.69C12.42,0,0,12.42,0,27.69v129.24c0,15.27,12.42,27.69,27.69,27.69h37v46.4c0,15.27,12.42,27.69,27.69,27.69h109.99c15.27,0,27.69-12.42,27.69-27.69V101.39c0-15.27-12.42-27.69-27.69-27.69h-37.27V27.69c0-15.27-12.42-27.69-27.69-27.69h0Z"/></g></g></svg>