<?xml version="1.0" encoding="UTF-8"?><svg id="Layer_2" xmlns="http://www.w3.org/2000/svg" viewBox="0 0 230.07 258.71"><defs><style>.cls-1{fill:#e9113c;}.cls-2{fill:#304553;}.cls-3{fill:#324453;}.cls-4{fill:#fff;}.cls-5{fill:#8ea3b2;}.cls-6{fill:#213542;}.cls-7{fill:#c5d3dd;}.cls-8{fill:#ff7f00;}.cls-9{fill:#ffc200;}</style></defs><g id="AE_Cards"><g id="Ref"><g id="House_Paper"><rect class="cls-6" x="11.95" y="11.9" width="141.2" height="160.81" rx="15.74" ry="15.74"/><ellipse class="cls-5" cx="70.61" cy="79.5" rx="14.28" ry="8.67" transform="translate(-34.26 61.94) rotate(-38.88)"/><path class="cls-2" d="M58.35,85.9s6.61-.28,11.5-5.74l-11.47,2.57s-.35,1.72-.04,3.17Z"/><circle class="cls-4" cx="60.42" cy="64.95" r="17.89"/><circle class="cls-4" cx="34.29" cy="48.35" r="4.53"/><circle class="cls-4" cx="34.38" cy="71.08" r="5.19"/><circle class="cls-4" cx="43.24" cy="38.19" r="4.24"/><circle class="cls-4" cx="56.78" cy="34.81" r="4.11"/><path class="cls-4" d="M35.22,76.19l-1.41-10.27s5.73-1.14,11.97-1.14l4.26,14.75s-4.76-4.42-14.82-3.33Z"/><path class="cls-4" d="M31.09,51.55s7.95,7.42,12.14,13.52l5.69-11.17s-5.25-2.98-11.43-8.75l-6.4,6.4Z"/><path class="cls-4" d="M42.79,39.32l-3.21,1s2.2,6,7.01,14.66l10.86-6.09c-3.93-4.3-7.59-8.73-10.88-13.32l-3.79,3.74Z"/><path class="cls-4" d="M52.78,35.74s1.31,9.14,3.79,12.89l11.57,1.37s-4.35-6.97-7.44-16.43l-7.91,2.17Z"/><path class="cls-7" d="M66.36,50.12c-.49-4.03-.43-7.94.22-11.73l7.5.42s-.51,9.55,2.36,18.16c-2.69-3.84-5.92-6.43-10.08-6.85Z"/><circle class="cls-4" cx="70.31" cy="38.85" r="3.77"/><path class="cls-5" d="M74.15,60.91c-.25,7.11-4.73,9.46-4.73,9.46-3.94-7.02-9.73-6.44-9.73-6.44,4.53,3.25,4.26,10.35-.96,11.98-3.22,1-6.93-.71-8.51-2.03-2.39-2-10.46-2.17-13.7-.66-1.66.78-1.53,1.97-1.01,2.94,7.57-.74,12.08,1.64,13.77,2.78.24.19.49.38.73.55.01.01.02.02.02.02h0c6.99,4.99,16.85,4.35,23.12-1.92,5.58-5.58,6.61-13.94,3.27-20.63h0c-.6-1.8-1.05-3.65-1.39-5.44-.65,2.07-.73,4.87-.89,9.38Z"/></g><g id="Player_Rock"><rect class="cls-3" x="76.66" y="85.63" width="141.46" height="161.1" rx="15.77" ry="15.77"/><ellipse class="cls-8" cx="151.7" cy="192.48" rx="21.84" ry="13.26" transform="translate(-38.58 38.03) rotate(-12.69)"/><path class="cls-2" d="M130.55,192.98s9.25,4.08,19.66-.11l-17.47-4.22s-1.63,2.13-2.19,4.33Z"/><circle class="cls-9" cx="147.52" cy="165.64" r="27.36"/><path class="cls-8" d="M154.67,150.77c.48-3.14.91-6.89.93-10.24,0-2.95-1.63-5.66-4.25-7.03h0c-5.47-2.86-11.97,1.34-11.58,7.5.17,2.66.28,5.58.28,8.7,0,3.77,2.88,6.93,6.64,7.29h0c3.89.38,7.39-2.36,7.98-6.22Z"/><path class="cls-8" d="M144.99,154.71c-.82-3.07-1.93-6.68-3.26-9.75-1.18-2.71-3.77-4.53-6.71-4.74h0c-6.16-.43-10.43,6.03-7.6,11.52,1.22,2.37,2.49,5,3.75,7.85,1.52,3.45,5.42,5.19,9.01,4.02h0c3.72-1.22,5.83-5.12,4.82-8.9Z"/><path class="cls-9" d="M140.4,146.15c-.82-3.07-1.93-6.68-3.26-9.75-1.18-2.71-3.77-4.53-6.71-4.74h0c-6.16-.43-9.2,5.56-7.6,11.52.67,2.5,1.31,5.67,2.04,8.97.81,3.69,7.13,4.08,10.72,2.9h0c3.72-1.22,5.83-5.12,4.82-8.9Z"/><path class="cls-9" d="M153.13,144.27c.48-3.14.91-6.89.93-10.24,0-2.95-1.63-5.66-4.25-7.03h0c-5.47-2.86-11.97,1.34-11.58,7.5.17,2.66.28,5.58.28,8.7,0,3.77,2.88,6.93,6.64,7.29h0c3.89.38,7.39-2.36,7.98-6.22Z"/><path class="cls-8" d="M128.93,177.25s20.53.26,17.07-16.38l-20.97,9.06,3.89,7.32Z"/><path class="cls-8" d="M169.99,150.02c-1.98.74-3.69,2.27-4.56,4.52-.96,2.48-2.09,5.19-3.39,8.01-1.58,3.43-.29,7.5,2.97,9.41,3.2,1.88,7.26,1.05,9.51-1.83.72-4.32.42-8.88-1.09-13.32-.84-2.48-2.01-4.75-3.44-6.8Z"/><path class="cls-8" d="M165.87,156.49c1.09-2.98,2.26-6.57,2.93-9.86.59-2.89-.48-5.87-2.78-7.73h0c-4.79-3.89-12-1.05-12.84,5.06-.36,2.64-.83,5.53-1.44,8.58-.74,3.7,1.46,7.36,5.07,8.46h0c3.74,1.14,7.71-.85,9.05-4.52Z"/><path class="cls-8" d="M169.1,169.36c-2.76,5.14-6.26,7.58-8.91,8.74-1.77.77-3.83-.12-4.54-1.91-.14-.36-.3-.69-.48-1-1-1.76-3.52-1.73-4.54.02-2.37,4.04-6.09,5.39-12.82,4.34-5.1-.8-9.03-5.65-10.31-8.54l-11.17-2.22c.2.43,5.43,6.97,7.08,9.8.01.03.02.05.02.05h0c6.22,11.56,20.06,17.64,32.9,13.27,11.43-3.89,18.6-14.97,18.54-26.41h0c.39-2.87,1.02-5.71,1.76-8.4-2.28,2.4-4.28,6.19-7.55,12.27Z"/><path class="cls-9" d="M165.65,149.81c1.09-2.98,2.26-6.57,2.93-9.86.59-2.89-.48-5.87-2.78-7.73h0c-4.79-3.89-12-1.05-12.84,5.06-.36,2.64-.83,5.53-1.44,8.58-.74,3.7,1.46,7.36,5.07,8.46h0c3.74,1.14,7.71-.85,9.05-4.52Z"/><path class="cls-9" d="M140.88,154.29c-4.44-.72-10.8-1.55-16.31-1.5-3.8.03-7.27,2.17-8.99,5.56h0c-3.57,7.04,1.91,15.31,9.78,14.71,2.58-.2,5.36-.35,8.29-.44,6.5-.2,11.81-5.26,12.35-11.74h0c.27-3.19-1.96-6.06-5.12-6.58Z"/><path class="cls-9" d="M174.96,160.82c1.64-2.72,3.46-6.03,4.75-9.12,1.13-2.73.64-5.86-1.26-8.12h0c-3.97-4.73-11.58-3.31-13.57,2.54-.86,2.52-1.86,5.27-3.04,8.15-1.43,3.49.04,7.51,3.37,9.27h0c3.46,1.83,7.73.63,9.75-2.72Z"/></g></g><g id="Res_Stroke_Loss"><path class="cls-1" d="M137.42,11.95c8.69,0,15.74,7.05,15.74,15.74v57.96h49.22c8.69,0,15.74,7.05,15.74,15.74v129.63c0,8.69-7.05,15.74-15.74,15.74h-109.99c-8.69,0-15.74-7.05-15.74-15.74v-58.35H27.69c-8.69,0-15.74-7.05-15.74-15.74V27.69c0-8.69,7.05-15.74,15.74-15.74h109.73M137.42,0H27.69C12.42,0,0,12.42,0,27.69v129.24c0,15.27,12.42,27.69,27.69,27.69h37v46.4c0,15.27,12.42,27.69,27.69,27.69h109.99c15.27,0,27.69-12.42,27.69-27.69V101.39c0-15.27-12.42-27.69-27.69-27.69h-37.27V27.69c0-15.27-12.42-27.69-27.69-27.69h0Z"/></g></g></svg>