<?xml version="1.0" encoding="UTF-8"?><svg id="Layer_2" xmlns="http://www.w3.org/2000/svg" viewBox="0 0 230.07 258.71"><defs><style>.cls-1{fill:#e9113c;}.cls-2{fill:#304553;}.cls-3{fill:#324453;}.cls-4{fill:#fff;}.cls-5{fill:#8ea3b2;}.cls-6{fill:#213542;}.cls-7{fill:#c5d3dd;}.cls-8{fill:#ff7f00;}.cls-9{fill:#ffc200;}</style></defs><g id="AE_Cards"><g id="Ref"><g id="House_Scissors"><rect class="cls-6" x="11.95" y="11.93" width="141.23" height="160.84" rx="15.74" ry="15.74"/><ellipse class="cls-5" cx="46.32" cy="82.76" rx="9.21" ry="15.18" transform="translate(-47.96 93.1) rotate(-67.03)"/><path class="cls-2" d="M34.17,74.48s3.57,6.05,11.15,7.9l-8.15-9.46s-1.78.54-2.99,1.55Z"/><circle class="cls-4" cx="54.84" cy="65.92" r="19.02"/><path class="cls-5" d="M39.63,64.94s11.49,8.46,16.28-2.33l-15.51-3.38-.77,5.71Z"/><path class="cls-5" d="M73.85,66.2c-1.42-.38-3-.21-4.41.71-1.55,1.01-3.28,2.08-5.16,3.15-2.28,1.3-3.2,4.12-2.13,6.52,1.05,2.36,3.67,3.54,6.11,2.82,2.16-2.15,3.84-4.84,4.78-7.96.53-1.74.79-3.5.81-5.23Z"/><path class="cls-5" d="M66.42,69.29c2.06-.78,4.48-1.81,6.51-2.95,1.79-1.01,2.86-2.93,2.8-4.98h0c-.14-4.29-4.91-6.78-8.51-4.43-1.55,1.01-3.28,2.08-5.16,3.15-2.28,1.3-3.2,4.12-2.13,6.52h0c1.11,2.48,3.96,3.66,6.5,2.69Z"/><circle class="cls-4" cx="51.46" cy="33.09" r="4.81"/><path class="cls-4" d="M46.66,33.26s.8,11.53-.36,19.31l12.52-4.56s-1.92-6.13-2.54-15.09l-9.61.34Z"/><path class="cls-7" d="M71.02,36.96l-2.33-2.72s-3.99,4.68-9.41,13.18c3.9,1.72,6.42,4.61,8.51,7.87,2.56-5.64,5.35-11.07,8.47-16.2l-5.24-2.13Z"/><circle class="cls-4" cx="72.32" cy="36.92" r="4.51"/><path class="cls-5" d="M65.51,76.76c-3.64,1.78-6.61,1.75-8.57,1.33-1.31-.28-2.11-1.62-1.79-2.92.06-.26.11-.51.13-.76.15-1.4-1.29-2.4-2.57-1.83-2.97,1.32-5.62.57-8.99-2.75-2.56-2.51-2.81-6.85-2.36-9l-5.41-5.78c-.06.32.24,6.14.03,8.4,0,.02,0,.03,0,.03h0c-1.18,9.05,4.22,17.99,13.25,20.72,8.03,2.43,16.52-.81,21.12-7.3h0c1.39-1.46,2.89-2.81,4.4-4.02-2.26.43-4.93,1.76-9.23,3.87Z"/><path class="cls-4" d="M68.68,64.92c2.06-.78,4.48-1.81,6.51-2.95,1.79-1.01,2.86-2.93,2.8-4.98h0c-.14-4.29-4.91-6.78-8.51-4.43-1.55,1.01-3.28,2.08-5.16,3.15-2.28,1.3-3.2,4.12-2.13,6.52h0c1.11,2.48,3.96,3.66,6.5,2.69Z"/><path class="cls-4" d="M55.68,56.82c-2.22-2.21-5.47-5.25-8.6-7.46-2.16-1.52-4.98-1.72-7.33-.5h0c-4.87,2.53-5.12,9.42-.44,12.27,1.54.93,3.17,1.97,4.86,3.11,3.75,2.52,8.8,1.81,11.73-1.63h0c1.44-1.69,1.35-4.22-.23-5.79Z"/><path class="cls-4" d="M70.9,74.89c2.06-.78,4.48-1.81,6.51-2.95,1.79-1.01,2.86-2.93,2.8-4.98h0c-.14-4.29-4.91-6.78-8.51-4.43-1.55,1.01-3.28,2.08-5.16,3.15-2.28,1.3-3.2,4.12-2.13,6.52h0c1.11,2.48,3.96,3.66,6.5,2.69Z"/></g><g id="Player_Paper"><rect class="cls-3" x="76.66" y="85.63" width="141.46" height="161.1" rx="15.77" ry="15.77"/><ellipse class="cls-8" cx="166.78" cy="191.27" rx="19.08" ry="11.58" transform="translate(-83.11 147.07) rotate(-38.88)"/><path class="cls-2" d="M150.4,199.82s8.82-.37,15.37-7.66l-15.32,3.43s-.46,2.3-.05,4.24Z"/><circle class="cls-9" cx="153.17" cy="171.84" r="23.9"/><circle class="cls-9" cx="118.26" cy="149.66" r="6.04"/><circle class="cls-9" cx="118.38" cy="180.02" r="6.93"/><circle class="cls-9" cx="130.22" cy="136.09" r="5.66"/><circle class="cls-9" cx="148.31" cy="131.58" r="5.48"/><path class="cls-9" d="M119.5,186.86l-1.88-13.72s7.65-1.53,15.99-1.53l5.69,19.7s-6.36-5.9-19.79-4.45Z"/><path class="cls-9" d="M113.99,153.94s10.62,9.92,16.22,18.06l7.6-14.92s-7.02-3.98-15.27-11.69l-8.55,8.55Z"/><path class="cls-9" d="M129.62,137.61l-4.29,1.34s2.94,8.01,9.36,19.58l14.51-8.13c-5.25-5.75-10.14-11.66-14.53-17.8l-5.06,5Z"/><path class="cls-9" d="M142.97,132.82s1.75,12.21,5.06,17.21l15.45,1.83s-5.81-9.32-9.94-21.94l-10.57,2.9Z"/><path class="cls-8" d="M161.1,152.03c-.65-5.38-.57-10.61.3-15.66l10.02.56s-.68,12.76,3.15,24.26c-3.59-5.13-7.9-8.59-13.46-9.15Z"/><circle class="cls-9" cx="166.38" cy="136.98" r="5.03"/><path class="cls-8" d="M171.51,166.44c-.34,9.5-6.32,12.64-6.32,12.64-5.26-9.37-13-8.6-13-8.6,6.05,4.34,5.68,13.83-1.28,16-4.3,1.34-9.26-.95-11.37-2.72-3.2-2.67-13.98-2.9-18.29-.88-2.22,1.04-2.05,2.63-1.35,3.93,10.11-.99,16.14,2.19,18.39,3.72.32.26.65.5.98.74.02.02.03.03.03.03h0c9.33,6.66,22.51,5.81,30.89-2.57,7.46-7.46,8.83-18.62,4.37-27.56h0c-.8-2.4-1.41-4.87-1.86-7.26-.87,2.76-.97,6.5-1.19,12.52Z"/></g></g><g id="Res_Stroke_Loss"><path class="cls-1" d="M137.42,11.95c8.69,0,15.74,7.05,15.74,15.74v57.96h49.22c8.69,0,15.74,7.05,15.74,15.74v129.63c0,8.69-7.05,15.74-15.74,15.74h-109.99c-8.69,0-15.74-7.05-15.74-15.74v-58.35H27.69c-8.69,0-15.74-7.05-15.74-15.74V27.69c0-8.69,7.05-15.74,15.74-15.74h109.73M137.42,0H27.69C12.42,0,0,12.42,0,27.69v129.24c0,15.27,12.42,27.69,27.69,27.69h37v46.4c0,15.27,12.42,27.69,27.69,27.69h109.99c15.27,0,27.69-12.42,27.69-27.69V101.39c0-15.27-12.42-27.69-27.69-27.69h-37.27V27.69c0-15.27-12.42-27.69-27.69-27.69h0Z"/></g></g></svg>