<?xml version="1.0" encoding="UTF-8"?><svg id="Layer_2" xmlns="http://www.w3.org/2000/svg" viewBox="0 0 230.07 258.71"><defs><style>.cls-1{fill:#304553;}.cls-2{fill:#324453;}.cls-3{fill:#fff;}.cls-4{fill:#2bff1a;}.cls-5{fill:#8ea3b2;}.cls-6{fill:#213542;}.cls-7{fill:#c5d3dd;}.cls-8{fill:#ff7f00;}.cls-9{fill:#ffc200;}</style></defs><g id="AE_Cards"><g id="Ref"><g id="House_Scissors"><rect class="cls-6" x="11.95" y="11.93" width="141.23" height="160.84" rx="15.74" ry="15.74"/><ellipse class="cls-5" cx="46.32" cy="82.76" rx="9.21" ry="15.18" transform="translate(-47.96 93.1) rotate(-67.03)"/><path class="cls-1" d="M34.17,74.48s3.57,6.05,11.15,7.9l-8.15-9.46s-1.78.54-2.99,1.55Z"/><circle class="cls-3" cx="54.84" cy="65.92" r="19.02"/><path class="cls-5" d="M39.63,64.94s11.49,8.46,16.28-2.33l-15.51-3.38-.77,5.71Z"/><path class="cls-5" d="M73.85,66.2c-1.42-.38-3-.21-4.41.71-1.55,1.01-3.28,2.08-5.16,3.15-2.28,1.3-3.2,4.12-2.13,6.52,1.05,2.36,3.67,3.54,6.11,2.82,2.16-2.15,3.84-4.84,4.78-7.96.53-1.74.79-3.5.81-5.23Z"/><path class="cls-5" d="M66.42,69.29c2.06-.78,4.48-1.81,6.51-2.95,1.79-1.01,2.86-2.93,2.8-4.98h0c-.14-4.29-4.91-6.78-8.51-4.43-1.55,1.01-3.28,2.08-5.16,3.15-2.28,1.3-3.2,4.12-2.13,6.52h0c1.11,2.48,3.96,3.66,6.5,2.69Z"/><circle class="cls-3" cx="51.46" cy="33.09" r="4.81"/><path class="cls-3" d="M46.66,33.26s.8,11.53-.36,19.31l12.52-4.56s-1.92-6.13-2.54-15.09l-9.61.34Z"/><path class="cls-7" d="M71.02,36.96l-2.33-2.72s-3.99,4.68-9.41,13.18c3.9,1.72,6.42,4.61,8.51,7.87,2.56-5.64,5.35-11.07,8.47-16.2l-5.24-2.13Z"/><circle class="cls-3" cx="72.32" cy="36.92" r="4.51"/><path class="cls-5" d="M65.51,76.76c-3.64,1.78-6.61,1.75-8.57,1.33-1.31-.28-2.11-1.62-1.79-2.92.06-.26.11-.51.13-.76.15-1.4-1.29-2.4-2.57-1.83-2.97,1.32-5.62.57-8.99-2.75-2.56-2.51-2.81-6.85-2.36-9l-5.41-5.78c-.06.32.24,6.14.03,8.4,0,.02,0,.03,0,.03h0c-1.18,9.05,4.22,17.99,13.25,20.72,8.03,2.43,16.52-.81,21.12-7.3h0c1.39-1.46,2.89-2.81,4.4-4.02-2.26.43-4.93,1.76-9.23,3.87Z"/><path class="cls-3" d="M68.68,64.92c2.06-.78,4.48-1.81,6.51-2.95,1.79-1.01,2.86-2.93,2.8-4.98h0c-.14-4.29-4.91-6.78-8.51-4.43-1.55,1.01-3.28,2.08-5.16,3.15-2.28,1.3-3.2,4.12-2.13,6.52h0c1.11,2.48,3.96,3.66,6.5,2.69Z"/><path class="cls-3" d="M55.68,56.82c-2.22-2.21-5.47-5.25-8.6-7.46-2.16-1.52-4.98-1.72-7.33-.5h0c-4.87,2.53-5.12,9.42-.44,12.27,1.54.93,3.17,1.97,4.86,3.11,3.75,2.52,8.8,1.81,11.73-1.63h0c1.44-1.69,1.35-4.22-.23-5.79Z"/><path class="cls-3" d="M70.9,74.89c2.06-.78,4.48-1.81,6.51-2.95,1.79-1.01,2.86-2.93,2.8-4.98h0c-.14-4.29-4.91-6.78-8.51-4.43-1.55,1.01-3.28,2.08-5.16,3.15-2.28,1.3-3.2,4.12-2.13,6.52h0c1.11,2.48,3.96,3.66,6.5,2.69Z"/></g><g id="Player_Rock"><rect class="cls-2" x="76.66" y="85.63" width="141.46" height="161.1" rx="15.77" ry="15.77"/><ellipse class="cls-8" cx="151.7" cy="192.48" rx="21.84" ry="13.26" transform="translate(-38.58 38.03) rotate(-12.69)"/><path class="cls-1" d="M130.55,192.98s9.25,4.08,19.66-.11l-17.47-4.22s-1.63,2.13-2.19,4.33Z"/><circle class="cls-9" cx="147.52" cy="165.64" r="27.36"/><path class="cls-8" d="M154.67,150.77c.48-3.14.91-6.89.93-10.24,0-2.95-1.63-5.66-4.25-7.03h0c-5.47-2.86-11.97,1.34-11.58,7.5.17,2.66.28,5.58.28,8.7,0,3.77,2.88,6.93,6.64,7.29h0c3.89.38,7.39-2.36,7.98-6.22Z"/><path class="cls-8" d="M144.99,154.71c-.82-3.07-1.93-6.68-3.26-9.75-1.18-2.71-3.77-4.53-6.71-4.74h0c-6.16-.43-10.43,6.03-7.6,11.52,1.22,2.37,2.49,5,3.75,7.85,1.52,3.45,5.42,5.19,9.01,4.02h0c3.72-1.22,5.83-5.12,4.82-8.9Z"/><path class="cls-9" d="M140.4,146.15c-.82-3.07-1.93-6.68-3.26-9.75-1.18-2.71-3.77-4.53-6.71-4.74h0c-6.16-.43-9.2,5.56-7.6,11.52.67,2.5,1.31,5.67,2.04,8.97.81,3.69,7.13,4.08,10.72,2.9h0c3.72-1.22,5.83-5.12,4.82-8.9Z"/><path class="cls-9" d="M153.13,144.27c.48-3.14.91-6.89.93-10.24,0-2.95-1.63-5.66-4.25-7.03h0c-5.47-2.86-11.97,1.34-11.58,7.5.17,2.66.28,5.58.28,8.7,0,3.77,2.88,6.93,6.64,7.29h0c3.89.38,7.39-2.36,7.98-6.22Z"/><path class="cls-8" d="M128.93,177.25s20.53.26,17.07-16.38l-20.97,9.06,3.89,7.32Z"/><path class="cls-8" d="M169.99,150.02c-1.98.74-3.69,2.27-4.56,4.52-.96,2.48-2.09,5.19-3.39,8.01-1.58,3.43-.29,7.5,2.97,9.41,3.2,1.88,7.26,1.05,9.51-1.83.72-4.32.42-8.88-1.09-13.32-.84-2.48-2.01-4.75-3.44-6.8Z"/><path class="cls-8" d="M165.87,156.49c1.09-2.98,2.26-6.57,2.93-9.86.59-2.89-.48-5.87-2.78-7.73h0c-4.79-3.89-12-1.05-12.84,5.06-.36,2.64-.83,5.53-1.44,8.58-.74,3.7,1.46,7.36,5.07,8.46h0c3.74,1.14,7.71-.85,9.05-4.52Z"/><path class="cls-8" d="M169.1,169.36c-2.76,5.14-6.26,7.58-8.91,8.74-1.77.77-3.83-.12-4.54-1.91-.14-.36-.3-.69-.48-1-1-1.76-3.52-1.73-4.54.02-2.37,4.04-6.09,5.39-12.82,4.34-5.1-.8-9.03-5.65-10.31-8.54l-11.17-2.22c.2.43,5.43,6.97,7.08,9.8.01.03.02.05.02.05h0c6.22,11.56,20.06,17.64,32.9,13.27,11.43-3.89,18.6-14.97,18.54-26.41h0c.39-2.87,1.02-5.71,1.76-8.4-2.28,2.4-4.28,6.19-7.55,12.27Z"/><path class="cls-9" d="M165.65,149.81c1.09-2.98,2.26-6.57,2.93-9.86.59-2.89-.48-5.87-2.78-7.73h0c-4.79-3.89-12-1.05-12.84,5.06-.36,2.64-.83,5.53-1.44,8.58-.74,3.7,1.46,7.36,5.07,8.46h0c3.74,1.14,7.71-.85,9.05-4.52Z"/><path class="cls-9" d="M140.88,154.29c-4.44-.72-10.8-1.55-16.31-1.5-3.8.03-7.27,2.17-8.99,5.56h0c-3.57,7.04,1.91,15.31,9.78,14.71,2.58-.2,5.36-.35,8.29-.44,6.5-.2,11.81-5.26,12.35-11.74h0c.27-3.19-1.96-6.06-5.12-6.58Z"/><path class="cls-9" d="M174.96,160.82c1.64-2.72,3.46-6.03,4.75-9.12,1.13-2.73.64-5.86-1.26-8.12h0c-3.97-4.73-11.58-3.31-13.57,2.54-.86,2.52-1.86,5.27-3.04,8.15-1.43,3.49.04,7.51,3.37,9.27h0c3.46,1.83,7.73.63,9.75-2.72Z"/></g></g><g id="Res_Stroke_Win"><path class="cls-4" d="M137.42,11.95c8.69,0,15.74,7.05,15.74,15.74v57.96h49.22c8.69,0,15.74,7.05,15.74,15.74v129.63c0,8.69-7.05,15.74-15.74,15.74h-109.99c-8.69,0-15.74-7.05-15.74-15.74v-58.35H27.69c-8.69,0-15.74-7.05-15.74-15.74V27.69c0-8.69,7.05-15.74,15.74-15.74h109.73M137.42,0H27.69C12.42,0,0,12.42,0,27.69v129.24c0,15.27,12.42,27.69,27.69,27.69h37v46.4c0,15.27,12.42,27.69,27.69,27.69h109.99c15.27,0,27.69-12.42,27.69-27.69V101.39c0-15.27-12.42-27.69-27.69-27.69h-37.27V27.69c0-15.27-12.42-27.69-27.69-27.69h0Z"/></g></g></svg>