<?xml version="1.0" encoding="UTF-8"?><svg id="Layer_2" xmlns="http://www.w3.org/2000/svg" viewBox="0 0 230.07 258.71"><defs><style>.cls-1{fill:#304553;}.cls-2{fill:#324453;}.cls-3{fill:#fff;}.cls-4{fill:#2bff1a;}.cls-5{fill:#8ea3b2;}.cls-6{fill:#213542;}.cls-7{fill:#ff7f00;}.cls-8{fill:#ffc200;}</style></defs><g id="AE_Cards"><g id="Ref"><g id="House_Rock"><rect class="cls-6" x="11.95" y="11.93" width="141.23" height="160.84" rx="15.74" ry="15.74"/><ellipse class="cls-5" cx="59.28" cy="80.46" rx="16.41" ry="9.96" transform="translate(-16.23 14.99) rotate(-12.69)"/><path class="cls-1" d="M43.39,80.83s6.95,3.06,14.77-.08l-13.12-3.17s-1.23,1.6-1.65,3.25Z"/><circle class="cls-3" cx="56.15" cy="60.29" r="20.56"/><path class="cls-5" d="M61.51,49.12c.36-2.36.69-5.18.7-7.69,0-2.22-1.23-4.25-3.19-5.28h0c-4.11-2.15-8.99,1.01-8.7,5.64.13,2,.21,4.2.21,6.53,0,2.84,2.17,5.21,4.99,5.48h0c2.92.28,5.55-1.77,6-4.67Z"/><path class="cls-5" d="M54.24,52.08c-.61-2.3-1.45-5.02-2.45-7.33-.88-2.04-2.83-3.4-5.04-3.56h0c-4.63-.32-7.83,4.53-5.71,8.65.92,1.78,1.87,3.76,2.82,5.9,1.14,2.6,4.07,3.9,6.77,3.02h0c2.79-.91,4.38-3.85,3.62-6.69Z"/><path class="cls-3" d="M50.79,45.65c-.61-2.3-1.45-5.02-2.45-7.33-.88-2.04-2.83-3.4-5.04-3.56h0c-4.63-.32-6.91,4.17-5.71,8.65.5,1.87.99,4.26,1.53,6.74.61,2.77,5.36,3.06,8.05,2.18h0c2.79-.91,4.38-3.85,3.62-6.69Z"/><path class="cls-3" d="M60.36,44.24c.36-2.36.69-5.18.7-7.69,0-2.22-1.23-4.25-3.19-5.28h0c-4.11-2.15-8.99,1.01-8.7,5.64.13,2,.21,4.2.21,6.53,0,2.84,2.17,5.21,4.99,5.48h0c2.92.28,5.55-1.77,6-4.67Z"/><path class="cls-5" d="M42.18,69.01s15.42.19,12.83-12.3l-15.75,6.81,2.93,5.5Z"/><path class="cls-5" d="M73.02,48.56c-1.49.56-2.77,1.71-3.43,3.4-.72,1.87-1.57,3.9-2.55,6.02-1.18,2.58-.22,5.63,2.23,7.07,2.41,1.41,5.45.79,7.14-1.37.54-3.25.32-6.67-.82-10.01-.63-1.86-1.51-3.57-2.58-5.1Z"/><path class="cls-5" d="M69.93,53.42c.82-2.24,1.7-4.94,2.2-7.41.45-2.17-.36-4.41-2.08-5.81h0c-3.6-2.92-9.01-.79-9.64,3.81-.27,1.98-.63,4.15-1.08,6.45-.56,2.78,1.09,5.53,3.81,6.36h0c2.81.86,5.79-.64,6.8-3.39Z"/><path class="cls-5" d="M72.36,63.09c-2.07,3.86-4.7,5.7-6.69,6.57-1.33.58-2.88-.09-3.41-1.44-.11-.27-.23-.52-.36-.75-.75-1.33-2.64-1.3-3.41.01-1.78,3.03-4.58,4.05-9.63,3.26-3.83-.6-6.78-4.25-7.75-6.41l-8.39-1.67c.15.32,4.08,5.24,5.32,7.36,0,.02.01.03.01.03h0c4.67,8.68,15.07,13.26,24.72,9.97,8.59-2.93,13.97-11.24,13.93-19.84h0c.3-2.16.77-4.29,1.32-6.31-1.72,1.8-3.22,4.65-5.67,9.22Z"/><path class="cls-3" d="M69.77,48.4c.82-2.24,1.7-4.94,2.2-7.41.45-2.17-.36-4.41-2.08-5.81h0c-3.6-2.92-9.01-.79-9.64,3.81-.27,1.98-.63,4.15-1.08,6.45-.56,2.78,1.09,5.53,3.81,6.36h0c2.81.86,5.79-.64,6.8-3.39Z"/><path class="cls-3" d="M51.16,51.77c-3.34-.54-8.12-1.17-12.25-1.13-2.86.02-5.46,1.63-6.75,4.18h0c-2.68,5.29,1.43,11.5,7.35,11.05,1.94-.15,4.03-.27,6.23-.33,4.88-.15,8.87-3.96,9.28-8.82h0c.2-2.4-1.47-4.56-3.85-4.94Z"/><path class="cls-3" d="M76.76,56.67c1.23-2.04,2.6-4.53,3.57-6.85.85-2.05.48-4.4-.95-6.1h0c-2.98-3.55-8.7-2.48-10.19,1.91-.64,1.89-1.4,3.96-2.29,6.12-1.07,2.63.03,5.64,2.53,6.96h0c2.6,1.37,5.81.47,7.32-2.04Z"/></g><g id="Player_Paper"><rect class="cls-2" x="76.66" y="85.63" width="141.46" height="161.1" rx="15.77" ry="15.77"/><ellipse class="cls-7" cx="166.78" cy="191.27" rx="19.08" ry="11.58" transform="translate(-83.11 147.07) rotate(-38.88)"/><path class="cls-1" d="M150.4,199.82s8.82-.37,15.37-7.66l-15.32,3.43s-.46,2.3-.05,4.24Z"/><circle class="cls-8" cx="153.17" cy="171.84" r="23.9"/><circle class="cls-8" cx="118.26" cy="149.66" r="6.04"/><circle class="cls-8" cx="118.38" cy="180.02" r="6.93"/><circle class="cls-8" cx="130.22" cy="136.09" r="5.66"/><circle class="cls-8" cx="148.31" cy="131.58" r="5.48"/><path class="cls-8" d="M119.5,186.86l-1.88-13.72s7.65-1.53,15.99-1.53l5.69,19.7s-6.36-5.9-19.79-4.45Z"/><path class="cls-8" d="M113.99,153.94s10.62,9.92,16.22,18.06l7.6-14.92s-7.02-3.98-15.27-11.69l-8.55,8.55Z"/><path class="cls-8" d="M129.62,137.61l-4.29,1.34s2.94,8.01,9.36,19.58l14.51-8.13c-5.25-5.75-10.14-11.66-14.53-17.8l-5.06,5Z"/><path class="cls-8" d="M142.97,132.82s1.75,12.21,5.06,17.21l15.45,1.83s-5.81-9.32-9.94-21.94l-10.57,2.9Z"/><path class="cls-7" d="M161.1,152.03c-.65-5.38-.57-10.61.3-15.66l10.02.56s-.68,12.76,3.15,24.26c-3.59-5.13-7.9-8.59-13.46-9.15Z"/><circle class="cls-8" cx="166.38" cy="136.98" r="5.03"/><path class="cls-7" d="M171.51,166.44c-.34,9.5-6.32,12.64-6.32,12.64-5.26-9.37-13-8.6-13-8.6,6.05,4.34,5.68,13.83-1.28,16-4.3,1.34-9.26-.95-11.37-2.72-3.2-2.67-13.98-2.9-18.29-.88-2.22,1.04-2.05,2.63-1.35,3.93,10.11-.99,16.14,2.19,18.39,3.72.32.26.65.5.98.74.02.02.03.03.03.03h0c9.33,6.66,22.51,5.81,30.89-2.57,7.46-7.46,8.83-18.62,4.37-27.56h0c-.8-2.4-1.41-4.87-1.86-7.26-.87,2.76-.97,6.5-1.19,12.52Z"/></g></g><g id="Res_Stroke_Win"><path class="cls-4" d="M137.42,11.95c8.69,0,15.74,7.05,15.74,15.74v57.96h49.22c8.69,0,15.74,7.05,15.74,15.74v129.63c0,8.69-7.05,15.74-15.74,15.74h-109.99c-8.69,0-15.74-7.05-15.74-15.74v-58.35H27.69c-8.69,0-15.74-7.05-15.74-15.74V27.69c0-8.69,7.05-15.74,15.74-15.74h109.73M137.42,0H27.69C12.42,0,0,12.42,0,27.69v129.24c0,15.27,12.42,27.69,27.69,27.69h37v46.4c0,15.27,12.42,27.69,27.69,27.69h109.99c15.27,0,27.69-12.42,27.69-27.69V101.39c0-15.27-12.42-27.69-27.69-27.69h-37.27V27.69c0-15.27-12.42-27.69-27.69-27.69h0Z"/></g></g></svg>