<?xml version="1.0" encoding="UTF-8"?><svg id="Layer_2" xmlns="http://www.w3.org/2000/svg" viewBox="0 0 230.07 258.71"><defs><style>.cls-1{fill:#304553;}.cls-2{fill:#ff9d00;}.cls-3{fill:#324453;}.cls-4{fill:#fff;}.cls-5{fill:#8ea3b2;}.cls-6{fill:#213542;}.cls-7{fill:#ff7f00;}.cls-8{fill:#ffc200;}</style></defs><g id="AE_Cards"><g id="Ref"><g id="House_Rock"><rect class="cls-6" x="11.95" y="11.93" width="141.23" height="160.84" rx="15.74" ry="15.74"/><ellipse class="cls-5" cx="59.28" cy="80.46" rx="16.41" ry="9.96" transform="translate(-16.23 14.99) rotate(-12.69)"/><path class="cls-1" d="M43.39,80.83s6.95,3.06,14.77-.08l-13.12-3.17s-1.23,1.6-1.65,3.25Z"/><circle class="cls-4" cx="56.15" cy="60.29" r="20.56"/><path class="cls-5" d="M61.51,49.12c.36-2.36.69-5.18.7-7.69,0-2.22-1.23-4.25-3.19-5.28h0c-4.11-2.15-8.99,1.01-8.7,5.64.13,2,.21,4.2.21,6.53,0,2.84,2.17,5.21,4.99,5.48h0c2.92.28,5.55-1.77,6-4.67Z"/><path class="cls-5" d="M54.24,52.08c-.61-2.3-1.45-5.02-2.45-7.33-.88-2.04-2.83-3.4-5.04-3.56h0c-4.63-.32-7.83,4.53-5.71,8.65.92,1.78,1.87,3.76,2.82,5.9,1.14,2.6,4.07,3.9,6.77,3.02h0c2.79-.91,4.38-3.85,3.62-6.69Z"/><path class="cls-4" d="M50.79,45.65c-.61-2.3-1.45-5.02-2.45-7.33-.88-2.04-2.83-3.4-5.04-3.56h0c-4.63-.32-6.91,4.17-5.71,8.65.5,1.87.99,4.26,1.53,6.74.61,2.77,5.36,3.06,8.05,2.18h0c2.79-.91,4.38-3.85,3.62-6.69Z"/><path class="cls-4" d="M60.36,44.24c.36-2.36.69-5.18.7-7.69,0-2.22-1.23-4.25-3.19-5.28h0c-4.11-2.15-8.99,1.01-8.7,5.64.13,2,.21,4.2.21,6.53,0,2.84,2.17,5.21,4.99,5.48h0c2.92.28,5.55-1.77,6-4.67Z"/><path class="cls-5" d="M42.18,69.01s15.42.19,12.83-12.3l-15.75,6.81,2.93,5.5Z"/><path class="cls-5" d="M73.02,48.56c-1.49.56-2.77,1.71-3.43,3.4-.72,1.87-1.57,3.9-2.55,6.02-1.18,2.58-.22,5.63,2.23,7.07,2.41,1.41,5.45.79,7.14-1.37.54-3.25.32-6.67-.82-10.01-.63-1.86-1.51-3.57-2.58-5.1Z"/><path class="cls-5" d="M69.93,53.42c.82-2.24,1.7-4.94,2.2-7.41.45-2.17-.36-4.41-2.08-5.81h0c-3.6-2.92-9.01-.79-9.64,3.81-.27,1.98-.63,4.15-1.08,6.45-.56,2.78,1.09,5.53,3.81,6.36h0c2.81.86,5.79-.64,6.8-3.39Z"/><path class="cls-5" d="M72.36,63.09c-2.07,3.86-4.7,5.7-6.69,6.57-1.33.58-2.88-.09-3.41-1.44-.11-.27-.23-.52-.36-.75-.75-1.33-2.64-1.3-3.41.01-1.78,3.03-4.58,4.05-9.63,3.26-3.83-.6-6.78-4.25-7.75-6.41l-8.39-1.67c.15.32,4.08,5.24,5.32,7.36,0,.02.01.03.01.03h0c4.67,8.68,15.07,13.26,24.72,9.97,8.59-2.93,13.97-11.24,13.93-19.84h0c.3-2.16.77-4.29,1.32-6.31-1.72,1.8-3.22,4.65-5.67,9.22Z"/><path class="cls-4" d="M69.77,48.4c.82-2.24,1.7-4.94,2.2-7.41.45-2.17-.36-4.41-2.08-5.81h0c-3.6-2.92-9.01-.79-9.64,3.81-.27,1.98-.63,4.15-1.08,6.45-.56,2.78,1.09,5.53,3.81,6.36h0c2.81.86,5.79-.64,6.8-3.39Z"/><path class="cls-4" d="M51.16,51.77c-3.34-.54-8.12-1.17-12.25-1.13-2.86.02-5.46,1.63-6.75,4.18h0c-2.68,5.29,1.43,11.5,7.35,11.05,1.94-.15,4.03-.27,6.23-.33,4.88-.15,8.87-3.96,9.28-8.82h0c.2-2.4-1.47-4.56-3.85-4.94Z"/><path class="cls-4" d="M76.76,56.67c1.23-2.04,2.6-4.53,3.57-6.85.85-2.05.48-4.4-.95-6.1h0c-2.98-3.55-8.7-2.48-10.19,1.91-.64,1.89-1.4,3.96-2.29,6.12-1.07,2.63.03,5.64,2.53,6.96h0c2.6,1.37,5.81.47,7.32-2.04Z"/></g><g id="Player_Rock"><rect class="cls-3" x="76.66" y="85.63" width="141.46" height="161.1" rx="15.77" ry="15.77"/><ellipse class="cls-7" cx="151.7" cy="192.48" rx="21.84" ry="13.26" transform="translate(-38.58 38.03) rotate(-12.69)"/><path class="cls-1" d="M130.55,192.98s9.25,4.08,19.66-.11l-17.47-4.22s-1.63,2.13-2.19,4.33Z"/><circle class="cls-8" cx="147.52" cy="165.64" r="27.36"/><path class="cls-7" d="M154.67,150.77c.48-3.14.91-6.89.93-10.24,0-2.95-1.63-5.66-4.25-7.03h0c-5.47-2.86-11.97,1.34-11.58,7.5.17,2.66.28,5.58.28,8.7,0,3.77,2.88,6.93,6.64,7.29h0c3.89.38,7.39-2.36,7.98-6.22Z"/><path class="cls-7" d="M144.99,154.71c-.82-3.07-1.93-6.68-3.26-9.75-1.18-2.71-3.77-4.53-6.71-4.74h0c-6.16-.43-10.43,6.03-7.6,11.52,1.22,2.37,2.49,5,3.75,7.85,1.52,3.45,5.42,5.19,9.01,4.02h0c3.72-1.22,5.83-5.12,4.82-8.9Z"/><path class="cls-8" d="M140.4,146.15c-.82-3.07-1.93-6.68-3.26-9.75-1.18-2.71-3.77-4.53-6.71-4.74h0c-6.16-.43-9.2,5.56-7.6,11.52.67,2.5,1.31,5.67,2.04,8.97.81,3.69,7.13,4.08,10.72,2.9h0c3.72-1.22,5.83-5.12,4.82-8.9Z"/><path class="cls-8" d="M153.13,144.27c.48-3.14.91-6.89.93-10.24,0-2.95-1.63-5.66-4.25-7.03h0c-5.47-2.86-11.97,1.34-11.58,7.5.17,2.66.28,5.58.28,8.7,0,3.77,2.88,6.93,6.64,7.29h0c3.89.38,7.39-2.36,7.98-6.22Z"/><path class="cls-7" d="M128.93,177.25s20.53.26,17.07-16.38l-20.97,9.06,3.89,7.32Z"/><path class="cls-7" d="M169.99,150.02c-1.98.74-3.69,2.27-4.56,4.52-.96,2.48-2.09,5.19-3.39,8.01-1.58,3.43-.29,7.5,2.97,9.41,3.2,1.88,7.26,1.05,9.51-1.83.72-4.32.42-8.88-1.09-13.32-.84-2.48-2.01-4.75-3.44-6.8Z"/><path class="cls-7" d="M165.87,156.49c1.09-2.98,2.26-6.57,2.93-9.86.59-2.89-.48-5.87-2.78-7.73h0c-4.79-3.89-12-1.05-12.84,5.06-.36,2.64-.83,5.53-1.44,8.58-.74,3.7,1.46,7.36,5.07,8.46h0c3.74,1.14,7.71-.85,9.05-4.52Z"/><path class="cls-7" d="M169.1,169.36c-2.76,5.14-6.26,7.58-8.91,8.74-1.77.77-3.83-.12-4.54-1.91-.14-.36-.3-.69-.48-1-1-1.76-3.52-1.73-4.54.02-2.37,4.04-6.09,5.39-12.82,4.34-5.1-.8-9.03-5.65-10.31-8.54l-11.17-2.22c.2.43,5.43,6.97,7.08,9.8.01.03.02.05.02.05h0c6.22,11.56,20.06,17.64,32.9,13.27,11.43-3.89,18.6-14.97,18.54-26.41h0c.39-2.87,1.02-5.71,1.76-8.4-2.28,2.4-4.28,6.19-7.55,12.27Z"/><path class="cls-8" d="M165.65,149.81c1.09-2.98,2.26-6.57,2.93-9.86.59-2.89-.48-5.87-2.78-7.73h0c-4.79-3.89-12-1.05-12.84,5.06-.36,2.64-.83,5.53-1.44,8.58-.74,3.7,1.46,7.36,5.07,8.46h0c3.74,1.14,7.71-.85,9.05-4.52Z"/><path class="cls-8" d="M140.88,154.29c-4.44-.72-10.8-1.55-16.31-1.5-3.8.03-7.27,2.17-8.99,5.56h0c-3.57,7.04,1.91,15.31,9.78,14.71,2.58-.2,5.36-.35,8.29-.44,6.5-.2,11.81-5.26,12.35-11.74h0c.27-3.19-1.96-6.06-5.12-6.58Z"/><path class="cls-8" d="M174.96,160.82c1.64-2.72,3.46-6.03,4.75-9.12,1.13-2.73.64-5.86-1.26-8.12h0c-3.97-4.73-11.58-3.31-13.57,2.54-.86,2.52-1.86,5.27-3.04,8.15-1.43,3.49.04,7.51,3.37,9.27h0c3.46,1.83,7.73.63,9.75-2.72Z"/></g></g><g id="Res_Stroke_Draw"><path class="cls-2" d="M137.42,11.95c8.69,0,15.74,7.05,15.74,15.74v57.96h49.22c8.69,0,15.74,7.05,15.74,15.74v129.63c0,8.69-7.05,15.74-15.74,15.74h-109.99c-8.69,0-15.74-7.05-15.74-15.74v-58.35H27.69c-8.69,0-15.74-7.05-15.74-15.74V27.69c0-8.69,7.05-15.74,15.74-15.74h109.73M137.42,0H27.69C12.42,0,0,12.42,0,27.69v129.24c0,15.27,12.42,27.69,27.69,27.69h37v46.4c0,15.27,12.42,27.69,27.69,27.69h109.99c15.27,0,27.69-12.42,27.69-27.69V101.39c0-15.27-12.42-27.69-27.69-27.69h-37.27V27.69c0-15.27-12.42-27.69-27.69-27.69h0Z"/></g></g></svg>