<?xml version="1.0" encoding="UTF-8"?><svg id="Layer_2" xmlns="http://www.w3.org/2000/svg" viewBox="0 0 230.07 258.71"><defs><style>.cls-1{fill:#304553;}.cls-2{fill:#ff9d00;}.cls-3{fill:#324453;}.cls-4{fill:#fff;}.cls-5{fill:#8ea3b2;}.cls-6{fill:#213542;}.cls-7{fill:#c5d3dd;}.cls-8{fill:#ff7f00;}.cls-9{fill:#ffc200;}</style></defs><g id="AE_Cards"><g id="Ref"><g id="House_Scissors"><rect class="cls-6" x="11.95" y="11.93" width="141.23" height="160.84" rx="15.74" ry="15.74"/><ellipse class="cls-5" cx="46.32" cy="82.76" rx="9.21" ry="15.18" transform="translate(-47.96 93.1) rotate(-67.03)"/><path class="cls-1" d="M34.17,74.48s3.57,6.05,11.15,7.9l-8.15-9.46s-1.78.54-2.99,1.55Z"/><circle class="cls-4" cx="54.84" cy="65.92" r="19.02"/><path class="cls-5" d="M39.63,64.94s11.49,8.46,16.28-2.33l-15.51-3.38-.77,5.71Z"/><path class="cls-5" d="M73.85,66.2c-1.42-.38-3-.21-4.41.71-1.55,1.01-3.28,2.08-5.16,3.15-2.28,1.3-3.2,4.12-2.13,6.52,1.05,2.36,3.67,3.54,6.11,2.82,2.16-2.15,3.84-4.84,4.78-7.96.53-1.74.79-3.5.81-5.23Z"/><path class="cls-5" d="M66.42,69.29c2.06-.78,4.48-1.81,6.51-2.95,1.79-1.01,2.86-2.93,2.8-4.98h0c-.14-4.29-4.91-6.78-8.51-4.43-1.55,1.01-3.28,2.08-5.16,3.15-2.28,1.3-3.2,4.12-2.13,6.52h0c1.11,2.48,3.96,3.66,6.5,2.69Z"/><circle class="cls-4" cx="51.46" cy="33.09" r="4.81"/><path class="cls-4" d="M46.66,33.26s.8,11.53-.36,19.31l12.52-4.56s-1.92-6.13-2.54-15.09l-9.61.34Z"/><path class="cls-7" d="M71.02,36.96l-2.33-2.72s-3.99,4.68-9.41,13.18c3.9,1.72,6.42,4.61,8.51,7.87,2.56-5.64,5.35-11.07,8.47-16.2l-5.24-2.13Z"/><circle class="cls-4" cx="72.32" cy="36.92" r="4.51"/><path class="cls-5" d="M65.51,76.76c-3.64,1.78-6.61,1.75-8.57,1.33-1.31-.28-2.11-1.62-1.79-2.92.06-.26.11-.51.13-.76.15-1.4-1.29-2.4-2.57-1.83-2.97,1.32-5.62.57-8.99-2.75-2.56-2.51-2.81-6.85-2.36-9l-5.41-5.78c-.06.32.24,6.14.03,8.4,0,.02,0,.03,0,.03h0c-1.18,9.05,4.22,17.99,13.25,20.72,8.03,2.43,16.52-.81,21.12-7.3h0c1.39-1.46,2.89-2.81,4.4-4.02-2.26.43-4.93,1.76-9.23,3.87Z"/><path class="cls-4" d="M68.68,64.92c2.06-.78,4.48-1.81,6.51-2.95,1.79-1.01,2.86-2.93,2.8-4.98h0c-.14-4.29-4.91-6.78-8.51-4.43-1.55,1.01-3.28,2.08-5.16,3.15-2.28,1.3-3.2,4.12-2.13,6.52h0c1.11,2.48,3.96,3.66,6.5,2.69Z"/><path class="cls-4" d="M55.68,56.82c-2.22-2.21-5.47-5.25-8.6-7.46-2.16-1.52-4.98-1.72-7.33-.5h0c-4.87,2.53-5.12,9.42-.44,12.27,1.54.93,3.17,1.97,4.86,3.11,3.75,2.52,8.8,1.81,11.73-1.63h0c1.44-1.69,1.35-4.22-.23-5.79Z"/><path class="cls-4" d="M70.9,74.89c2.06-.78,4.48-1.81,6.51-2.95,1.79-1.01,2.86-2.93,2.8-4.98h0c-.14-4.29-4.91-6.78-8.51-4.43-1.55,1.01-3.28,2.08-5.16,3.15-2.28,1.3-3.2,4.12-2.13,6.52h0c1.11,2.48,3.96,3.66,6.5,2.69Z"/></g><g id="Player_Scissors"><rect class="cls-3" x="76.66" y="85.71" width="141.46" height="161.1" rx="15.77" ry="15.77"/><ellipse class="cls-8" cx="134.44" cy="195.63" rx="12.26" ry="20.21" transform="translate(-98.15 243.05) rotate(-67.03)"/><path class="cls-1" d="M118.27,184.6s4.76,8.05,14.84,10.52l-10.85-12.59s-2.38.72-3.98,2.07Z"/><circle class="cls-9" cx="145.78" cy="173.2" r="25.31"/><path class="cls-8" d="M125.54,171.9s15.29,11.26,21.67-3.1l-20.65-4.5-1.02,7.6Z"/><path class="cls-8" d="M171.09,173.58c-1.89-.51-4-.28-5.87.94-2.06,1.35-4.37,2.77-6.87,4.2-3.03,1.73-4.26,5.48-2.84,8.67,1.4,3.14,4.89,4.71,8.13,3.75,2.88-2.86,5.11-6.45,6.36-10.6.7-2.32,1.05-4.65,1.08-6.96Z"/><path class="cls-8" d="M161.2,177.7c2.74-1.04,5.96-2.41,8.67-3.93,2.38-1.34,3.81-3.9,3.72-6.63h0c-.19-5.71-6.54-9.02-11.32-5.9-2.06,1.35-4.37,2.77-6.87,4.2-3.03,1.73-4.26,5.48-2.84,8.67h0c1.47,3.3,5.27,4.87,8.65,3.59Z"/><circle class="cls-9" cx="141.29" cy="129.52" r="6.4"/><path class="cls-9" d="M134.89,129.74s1.06,15.35-.48,25.71l16.66-6.07s-2.56-8.15-3.38-20.08l-12.8.45Z"/><path class="cls-9" d="M167.32,134.66l-3.09-3.62s-5.31,6.23-12.52,17.55c5.19,2.29,8.55,6.13,11.32,10.47,3.4-7.51,7.12-14.73,11.27-21.57l-6.98-2.84Z"/><circle class="cls-9" cx="169.05" cy="134.61" r="6"/><path class="cls-8" d="M159.99,187.64c-4.85,2.37-8.79,2.32-11.41,1.76-1.75-.37-2.81-2.15-2.38-3.89.09-.34.14-.68.18-1.01.2-1.86-1.71-3.2-3.42-2.44-3.96,1.76-7.48.76-11.97-3.65-3.4-3.35-3.74-9.12-3.15-11.98l-7.2-7.69c-.08.43.32,8.17.04,11.19,0,.03-.01.04-.01.04h0c-1.57,12.04,5.62,23.94,17.63,27.58,10.69,3.24,21.99-1.07,28.11-9.71h0c1.85-1.94,3.85-3.74,5.86-5.36-3.01.57-6.56,2.34-12.29,5.15Z"/><path class="cls-9" d="M164.21,171.87c2.74-1.04,5.96-2.41,8.67-3.93,2.38-1.34,3.81-3.9,3.72-6.63h0c-.19-5.71-6.54-9.02-11.32-5.9-2.06,1.35-4.37,2.77-6.87,4.2-3.03,1.73-4.26,5.48-2.84,8.67h0c1.47,3.3,5.27,4.87,8.65,3.59Z"/><path class="cls-9" d="M146.91,161.09c-2.95-2.94-7.28-6.99-11.45-9.93-2.87-2.02-6.63-2.29-9.75-.67h0c-6.48,3.36-6.82,12.54-.58,16.33,2.04,1.24,4.22,2.62,6.47,4.14,4.99,3.35,11.72,2.41,15.62-2.16h0c1.92-2.26,1.8-5.62-.3-7.71Z"/><path class="cls-9" d="M167.16,185.15c2.74-1.04,5.96-2.41,8.67-3.93,2.38-1.34,3.81-3.9,3.72-6.63h0c-.19-5.71-6.54-9.02-11.32-5.9-2.06,1.35-4.37,2.77-6.87,4.2-3.03,1.73-4.26,5.48-2.84,8.67h0c1.47,3.3,5.27,4.87,8.65,3.59Z"/></g></g><g id="Res_Stroke_Draw"><path class="cls-2" d="M137.42,11.95c8.69,0,15.74,7.05,15.74,15.74v57.96h49.22c8.69,0,15.74,7.05,15.74,15.74v129.63c0,8.69-7.05,15.74-15.74,15.74h-109.99c-8.69,0-15.74-7.05-15.74-15.74v-58.35H27.69c-8.69,0-15.74-7.05-15.74-15.74V27.69c0-8.69,7.05-15.74,15.74-15.74h109.73M137.42,0H27.69C12.42,0,0,12.42,0,27.69v129.24c0,15.27,12.42,27.69,27.69,27.69h37v46.4c0,15.27,12.42,27.69,27.69,27.69h109.99c15.27,0,27.69-12.42,27.69-27.69V101.39c0-15.27-12.42-27.69-27.69-27.69h-37.27V27.69c0-15.27-12.42-27.69-27.69-27.69h0Z"/></g></g></svg>